<svg viewBox="0 0 141.94 100.005" fill="none" xmlns="http://www.w3.org/2000/svg">
<g id="Group">
<path id="Vector" d="M9.14089 82.9229C8.36197 82.5334 7.35395 82.3425 6.10157 82.3425H0V99.7614H3.79534V92.018H5.84956C6.97976 92.018 7.95724 91.8576 8.78198 91.5445C9.61436 91.2314 10.2558 90.7274 10.7217 90.0248C11.1798 89.3299 11.4166 88.4136 11.4166 87.2833C11.4166 86.2371 11.2333 85.3437 10.8667 84.6106C10.5002 83.8698 9.92745 83.3124 9.14853 82.9229H9.14089ZM7.62887 88.7419C7.48377 89.1085 7.2165 89.3757 6.83467 89.5361C6.45284 89.7041 5.91829 89.7805 5.231 89.7805H3.79534V84.58H5.231C6.01756 84.58 6.5903 84.6717 6.96449 84.8626C7.33104 85.0458 7.56777 85.336 7.68232 85.7331C7.79687 86.1302 7.85032 86.6419 7.85032 87.2681C7.85032 87.8943 7.77396 88.3754 7.62887 88.7419Z" fill="#2B7FFF"/>
<path id="Vector_2" d="M23.9863 90.2616C24.3528 89.8645 24.6125 89.391 24.7652 88.8336C24.9179 88.2761 24.9943 87.6423 24.9943 86.9397C24.9943 85.779 24.7423 84.8626 24.2383 84.1906C23.7343 83.5185 23.0012 83.0374 22.0313 82.7625C21.0615 82.4876 19.8855 82.3425 18.4804 82.3425H13.509V99.7614H17.3043V91.7812H19.0455L21.5579 99.7614H25.3532L22.459 91.1856C23.1081 90.9718 23.6197 90.6663 23.9863 90.2692V90.2616ZM21.176 88.6503C20.9851 89.0474 20.6797 89.3299 20.2367 89.5132C19.8015 89.6965 19.2135 89.7805 18.4804 89.7805H17.3043V84.5113H18.6865C19.7633 84.5113 20.4964 84.7328 20.8782 85.168C21.26 85.6033 21.4586 86.2601 21.4586 87.1383C21.4586 87.7568 21.3669 88.2608 21.176 88.6579V88.6503Z" fill="#2B7FFF"/>
<path id="Vector_3" d="M36.9836 82.8146C36.1206 82.3717 34.937 82.1503 33.4326 82.1503C31.9282 82.1503 30.7904 82.3717 29.9198 82.8146C29.0492 83.2576 28.423 83.899 28.0488 84.739C27.6747 85.5791 27.4837 86.5871 27.4837 87.7631V94.277C27.4837 95.4531 27.6747 96.4687 28.0488 97.3316C28.423 98.1946 29.0492 98.8513 29.9198 99.3095C30.7904 99.7677 31.9587 99.9968 33.4326 99.9968C34.9064 99.9968 36.1206 99.7677 36.9836 99.2942C37.8465 98.8284 38.4727 98.1717 38.8545 97.3164C39.2363 96.4611 39.4349 95.4531 39.4349 94.2923V87.7555C39.4349 86.5794 39.244 85.5714 38.8545 84.7314C38.4727 83.8914 37.8465 83.2499 36.9836 82.807V82.8146ZM35.5861 95.0483C35.5861 95.5218 35.5326 95.9571 35.4333 96.3618C35.3341 96.7665 35.1279 97.0796 34.8301 97.3087C34.5322 97.5378 34.0664 97.6524 33.4326 97.6524C32.7988 97.6524 32.3558 97.5378 32.0504 97.3087C31.7449 97.0796 31.5387 96.7665 31.4471 96.3618C31.3555 95.9571 31.3096 95.5218 31.3096 95.0483V87.03C31.3096 86.5413 31.3631 86.106 31.4624 85.7165C31.5616 85.3271 31.7678 85.0216 32.0809 84.8001C32.3864 84.5787 32.8446 84.4641 33.4402 84.4641C34.0741 84.4641 34.5399 84.5787 34.8377 84.8001C35.1355 85.0216 35.3341 85.3271 35.441 85.7165C35.5479 86.106 35.5937 86.5413 35.5937 87.03V95.0483H35.5861Z" fill="#2B7FFF"/>
<path id="Vector_4" d="M55.7923 90.665L53.2035 88.7482C52.6537 88.3435 52.2413 87.954 51.9435 87.5722C51.6533 87.1904 51.5082 86.7093 51.5082 86.1213C51.5082 85.6631 51.6609 85.2812 51.9587 84.9682C52.2566 84.6551 52.6919 84.5023 53.257 84.5023C53.8221 84.5023 54.2192 84.6245 54.5017 84.8689C54.7843 85.1132 54.9828 85.4493 55.0897 85.8769C55.1966 86.3045 55.273 86.7933 55.3112 87.3431L58.5414 86.8696C58.488 86.2358 58.3734 85.6402 58.1825 85.0751C57.9916 84.51 57.709 84.006 57.3272 83.5554C56.9454 83.1125 56.4261 82.7612 55.777 82.5092C55.1279 82.2572 54.3184 82.135 53.341 82.135C51.6838 82.135 50.378 82.5092 49.4158 83.2499C48.4612 83.9983 47.9801 85.0598 47.9801 86.4344C47.9801 87.3966 48.2016 88.1984 48.6369 88.8551C49.0721 89.5042 49.6602 90.0999 50.3933 90.6268L53.005 92.5588C53.6922 93.0476 54.2344 93.5363 54.6468 94.025C55.0592 94.5138 55.2654 95.14 55.2654 95.896C55.2654 96.3695 55.1355 96.7589 54.8835 97.072C54.6239 97.3775 54.1886 97.5302 53.5777 97.5302C53.0279 97.5302 52.5926 97.3927 52.2566 97.1102C51.9206 96.8276 51.6762 96.4305 51.5158 95.9189C51.3555 95.4073 51.2562 94.8116 51.218 94.132L47.9649 94.6665C48.0183 95.812 48.255 96.7818 48.6827 97.5684C49.1103 98.3549 49.7442 98.9582 50.5765 99.363C51.4166 99.7677 52.4551 99.9739 53.7075 99.9739C54.7537 99.9739 55.6625 99.7906 56.4414 99.424C57.2203 99.0575 57.8236 98.5535 58.2589 97.9044C58.6941 97.2553 58.9156 96.5222 58.9156 95.6898C58.9156 94.5443 58.6101 93.5669 58.0069 92.7574C57.4036 91.9479 56.6705 91.2377 55.8152 90.6421L55.7923 90.665Z" fill="#2B7FFF"/>
<path id="Vector_5" d="M64.918 91.8042H68.7897V89.5896H64.918V84.58H69.8436V82.3425H61.1303V99.7614H69.897V97.5621H64.918V91.8042Z" fill="#2B7FFF"/>
<path id="Vector_6" d="M82.5735 90.2616C82.9401 89.8645 83.1997 89.391 83.3525 88.8336C83.5052 88.2761 83.5815 87.6423 83.5815 86.9397C83.5815 85.779 83.3295 84.8626 82.8255 84.1906C82.3215 83.5185 81.5884 83.0374 80.6186 82.7625C79.6488 82.4876 78.4727 82.3425 77.0676 82.3425H72.0963V99.7614H75.8916V91.7812H77.6327L80.1451 99.7614H83.9405L81.0462 91.1856C81.6953 90.9718 82.207 90.6663 82.5735 90.2692V90.2616ZM79.7633 88.6503C79.5724 89.0474 79.2669 89.3299 78.824 89.5132C78.3887 89.6965 77.8007 89.7805 77.0676 89.7805H75.8916V84.5113H77.2738C78.3505 84.5113 79.0836 84.7328 79.4655 85.168C79.8473 85.6033 80.0458 86.2601 80.0458 87.1383C80.0458 87.7568 79.9542 88.2608 79.7633 88.6579V88.6503Z" fill="#2B7FFF"/>
<path id="Vector_7" d="M91.4854 94.6602L88.7439 82.3425H85.3838L89.561 99.7614H93.3029L97.4877 82.3425H94.0512L91.4854 94.6602Z" fill="#2B7FFF"/>
<path id="Vector_8" d="M103.459 82.3425H99.7175V99.7614H103.459V82.3425Z" fill="#2B7FFF"/>
<path id="Vector_9" d="M115.624 82.7612C114.815 82.3488 113.685 82.1503 112.249 82.1503C110.729 82.1503 109.538 82.387 108.675 82.8605C107.812 83.3339 107.209 84.0059 106.865 84.8841C106.522 85.7623 106.354 86.7933 106.354 87.9769V94.193C106.354 95.3232 106.522 96.3236 106.865 97.1942C107.209 98.0647 107.812 98.7444 108.675 99.2484C109.538 99.7524 110.729 100.004 112.249 100.004C113.769 100.004 114.861 99.783 115.67 99.3248C116.48 98.8742 117.052 98.248 117.373 97.4538C117.694 96.6596 117.862 95.7432 117.862 94.7123V93.3148H114.219V94.888C114.219 95.4072 114.189 95.8731 114.12 96.2854C114.051 96.6978 113.883 97.0338 113.624 97.2858C113.356 97.5378 112.913 97.66 112.279 97.66C111.73 97.66 111.302 97.5531 110.981 97.3469C110.668 97.1407 110.447 96.8276 110.325 96.4229C110.202 96.0105 110.149 95.4912 110.149 94.865V87.2973C110.149 86.7704 110.195 86.2892 110.279 85.8692C110.363 85.4492 110.554 85.1056 110.859 84.8612C111.157 84.6092 111.63 84.487 112.279 84.487C112.929 84.487 113.387 84.6092 113.654 84.8383C113.921 85.075 114.082 85.3958 114.143 85.7929C114.204 86.1976 114.234 86.6405 114.234 87.1293V88.6337H117.877V87.1675C117.877 86.1671 117.709 85.2812 117.365 84.5252C117.022 83.7616 116.449 83.1812 115.632 82.7765L115.624 82.7612Z" fill="#2B7FFF"/>
<path id="Vector_10" d="M124.307 91.8042H128.179V89.5896H124.307V84.58H129.225V82.3425H120.512V99.7614H129.278V97.5621H124.307V91.8042Z" fill="#2B7FFF"/>
<path id="Vector_11" d="M141.008 92.7803C140.405 91.9708 139.672 91.2606 138.816 90.665L136.228 88.7482C135.678 88.3435 135.265 87.954 134.967 87.5722C134.677 87.1904 134.532 86.7093 134.532 86.1213C134.532 85.6631 134.685 85.2812 134.983 84.9682C135.281 84.6551 135.716 84.5023 136.281 84.5023C136.846 84.5023 137.243 84.6245 137.526 84.8689C137.808 85.1132 138.007 85.4493 138.114 85.8769C138.221 86.3045 138.297 86.7933 138.335 87.3431L141.565 86.8696C141.512 86.2358 141.397 85.6402 141.207 85.0751C141.016 84.51 140.733 84.006 140.351 83.5554C139.969 83.1125 139.45 82.7612 138.801 82.5092C138.152 82.2572 137.342 82.135 136.365 82.135C134.708 82.135 133.402 82.5092 132.44 83.2499C131.485 83.9983 131.004 85.0598 131.004 86.4344C131.004 87.3966 131.226 88.1984 131.661 88.8551C132.096 89.5042 132.684 90.0999 133.417 90.6268L136.029 92.5588C136.716 93.0476 137.258 93.5363 137.671 94.025C138.083 94.5138 138.289 95.14 138.289 95.896C138.289 96.3695 138.16 96.7589 137.908 97.072C137.648 97.3775 137.213 97.5302 136.602 97.5302C136.052 97.5302 135.617 97.3927 135.281 97.1102C134.945 96.8276 134.7 96.4305 134.54 95.9189C134.379 95.4073 134.28 94.8116 134.242 94.132L130.989 94.6665C131.042 95.812 131.279 96.7818 131.707 97.5684C132.134 98.3549 132.768 98.9582 133.601 99.363C134.441 99.7677 135.479 99.9739 136.732 99.9739C137.778 99.9739 138.686 99.7906 139.465 99.424C140.244 99.0575 140.848 98.5535 141.283 97.9044C141.718 97.2553 141.94 96.5222 141.94 95.6898C141.94 94.5443 141.634 93.5669 141.031 92.7574L141.008 92.7803Z" fill="#2B7FFF"/>
<path id="Vector_12" d="M104.994 35.0797C105.674 36.1794 107.484 38.6765 111.669 40.2267C111.218 39.8755 107.476 36.882 107.522 31.8953C107.56 28.2222 109.63 25.7708 110.21 25.1217C110.615 25.6716 111.294 26.5116 112.264 27.3974C114.899 29.78 116.243 29.3218 118.068 31.1775C119.664 32.8041 120.68 35.3241 120.29 37.6991C120.145 38.5696 119.84 39.2569 119.611 39.6998C120.328 39.2951 122.589 37.8976 123.513 35.1179C124.513 32.1168 123.322 29.4058 123.123 28.9782C122.1 26.7483 120.611 26.2367 119.42 23.2279C119.076 22.365 118.893 21.6242 118.786 21.1355C118.442 21.3875 118.022 21.7617 117.633 22.2733C116.923 23.1973 116.655 24.1366 116.541 24.6941C114.57 23.0523 113.303 21.3799 112.547 20.2115C111.317 18.3176 110.737 16.7063 110.584 16.2634C110.271 15.3699 110.08 14.5834 109.966 13.9954C103.307 20.7231 101.55 29.5051 105.002 35.095L104.994 35.0797Z" fill="#2B7FFF"/>
<path id="Vector_13" d="M24.2078 57.1898H57.0143L68.7286 36.7698L60.4278 19.2822H60.4201L58.0605 14.3032L55.3877 8.67507L51.2716 0H36.2735L2.53544 71.5006H17.4343L24.2078 57.1898ZM31.3174 42.0771L31.5618 41.5731L43.7726 15.8305L56.1513 41.9244L56.5102 42.6957H31.0272L31.3174 42.0771Z" fill="#2B7FFF"/>
<path id="Vector_14" d="M130.347 57.1898L126.437 48.9042H132.829L129.897 42.6957H102.207C103.184 44.7652 104.162 46.8347 105.139 48.9042H111.516L114.219 54.6468L115.426 57.1898H78.4268L99.1294 22.7186L107.507 8.78198L103.36 0H55.8457L62.6345 14.3032H81.573C83.2683 14.3032 84.9636 14.3032 86.6666 14.2955C82.4436 21.1684 78.2664 28.1787 74.1274 35.3265L70.7979 41.1378L61.5883 57.1898H61.5959C59.0759 61.5731 56.5558 65.9717 54.0434 70.3551C53.8143 70.7446 53.5929 71.134 53.3714 71.5235C58.9843 71.5159 64.5971 71.5082 70.2099 71.5006H137.098L130.347 57.1898Z" fill="#2B7FFF"/>
<path id="Vector_15" d="M113.097 32.8261C112.371 32.7115 111.76 32.7497 111.348 32.8031C111.692 33.1926 112.18 33.8264 112.547 34.7046C113.456 36.8887 112.677 38.332 113.776 39.4393C113.83 39.4927 114.639 40.2793 115.77 40.1724C116.862 40.0655 117.472 39.2025 117.526 39.1109C118.183 38.1411 117.877 36.9956 117.763 36.5756C117.205 34.4984 115.029 33.1391 113.097 32.8261Z" fill="#2B7FFF"/>
</g>
</svg>
