<svg viewBox="0 0 16.6669 13.3333" fill="none" xmlns="http://www.w3.org/2000/svg">
<path fill-rule="evenodd" clip-rule="evenodd" d="M4.58333 1.66667C3.89298 1.66667 3.33333 2.22631 3.33333 2.91667C3.33333 3.52044 3.76223 4.0259 4.33244 4.14165C4.78348 4.2332 5.0749 4.67306 4.98334 5.1241C4.89179 5.57514 4.45193 5.86656 4.00089 5.775C2.66923 5.50469 1.66667 4.32869 1.66667 2.91667C1.66667 1.30584 2.9725 0 4.58333 0C5.23911 0 5.8465 0.217416 6.3341 0.583755C6.70206 0.860208 6.77623 1.38261 6.49978 1.75056C6.22333 2.11852 5.70093 2.1927 5.33297 1.91624C5.12412 1.75932 4.86575 1.66667 4.58333 1.66667ZM10.3328 0.583755C10.8204 0.217416 11.4278 0 12.0835 0C13.6944 0 15.0002 1.30584 15.0002 2.91667C15.0002 4.32869 13.9976 5.50469 12.666 5.775C12.2149 5.86656 11.7751 5.57514 11.6835 5.1241C11.592 4.67306 11.8834 4.2332 12.3344 4.14165C12.9046 4.0259 13.3335 3.52044 13.3335 2.91667C13.3335 2.22631 12.7739 1.66667 12.0835 1.66667C11.8011 1.66667 11.5428 1.75933 11.3339 1.91624C10.9659 2.1927 10.4435 2.11852 10.1671 1.75056C9.89064 1.38261 9.96481 0.860208 10.3328 0.583755ZM8.33333 3.33333C7.64297 3.33333 7.08333 3.89298 7.08333 4.58333C7.08333 5.27369 7.64297 5.83333 8.33333 5.83333C9.02369 5.83333 9.58333 5.27369 9.58333 4.58333C9.58333 3.89298 9.02369 3.33333 8.33333 3.33333ZM5.41666 4.58333C5.41666 2.9725 6.7225 1.66667 8.33333 1.66667C9.94416 1.66667 11.25 2.9725 11.25 4.58333C11.25 6.19416 9.94416 7.5 8.33333 7.5C6.7225 7.5 5.41666 6.19416 5.41666 4.58333ZM3.33333 8.33333C2.41286 8.33333 1.66667 9.07953 1.66667 10H2.08333C2.54357 10 2.91667 10.3731 2.91667 10.8333C2.91667 11.2936 2.54357 11.6667 2.08333 11.6667H1.66667C0.746192 11.6667 0 10.9205 0 10C0 8.15905 1.49238 6.66667 3.33333 6.66667H4.16667C4.6269 6.66667 5 7.03976 5 7.5C5 7.96024 4.6269 8.33333 4.16667 8.33333H3.33333ZM11.6669 7.5C11.6669 7.03976 12.04 6.66667 12.5002 6.66667H13.3335C15.1745 6.66667 16.6669 8.15905 16.6669 10C16.6669 10.9205 15.9207 11.6667 15.0002 11.6667H14.5835C14.1233 11.6667 13.7502 11.2936 13.7502 10.8333C13.7502 10.3731 14.1233 10 14.5835 10H15.0002C15.0002 9.07953 14.254 8.33333 13.3335 8.33333H12.5002C12.04 8.33333 11.6669 7.96024 11.6669 7.5ZM7.08333 10C6.16286 10 5.41666 10.7462 5.41666 11.6667H11.25C11.25 10.7462 10.5038 10 9.58333 10H7.08333ZM3.75 11.6667C3.75 9.82572 5.24238 8.33333 7.08333 8.33333H9.58333C11.4243 8.33333 12.9167 9.82572 12.9167 11.6667C12.9167 12.5871 12.1705 13.3333 11.25 13.3333H5.41666C4.49619 13.3333 3.75 12.5871 3.75 11.6667Z" fill="white"/>
</svg>
