<svg viewBox="0 0 15 15" fill="none" xmlns="http://www.w3.org/2000/svg">
<path fill-rule="evenodd" clip-rule="evenodd" d="M9.59064 1.66667C9.50742 1.66657 9.42435 1.68965 9.35016 1.73534C9.27577 1.78115 9.21217 1.84865 9.16859 1.93278C9.16355 1.94251 9.15832 1.95214 9.1529 1.96166C8.22042 3.6004 7.05937 5.09151 5.70607 6.38756C5.67463 6.41767 5.64089 6.44526 5.60514 6.4701C5.53752 6.51708 5.46807 6.56705 5.39629 6.61869C5.0565 6.86318 4.66445 7.14525 4.16667 7.32572V12.0833C4.16667 13.2339 3.23393 14.1667 2.08333 14.1667C0.93274 14.1667 0 13.2339 0 12.0833V6.66667C0 6.44565 0.0877974 6.23369 0.244078 6.07741C0.400358 5.92113 0.61232 5.83333 0.833333 5.83333L3.28922 5.83333C3.67784 5.78763 3.90747 5.62603 4.40572 5.2754C4.46613 5.23288 4.53049 5.18759 4.59957 5.13939C5.81244 3.9693 6.85581 2.62582 7.69726 1.14982C7.87792 0.808119 8.14609 0.519473 8.47623 0.31617C8.81165 0.109622 9.1974 -0.000335402 9.59191 7.68524e-07C9.90058 -5.94322e-05 10.2051 0.0672622 10.485 0.196741C10.765 0.326287 11.0133 0.514717 11.2141 0.748194C11.4149 0.981607 11.5639 1.25485 11.6523 1.5493C11.7408 1.84371 11.767 2.15356 11.7296 2.45861C11.7227 2.51474 11.7101 2.57003 11.692 2.62361L10.89 5H12.8459C12.9635 5.00005 13.1272 5.00065 13.3033 5.04111C13.4876 5.08345 13.6369 5.15719 13.7601 5.22298C14.0916 5.40012 14.3745 5.65545 14.5862 5.96556C14.7979 6.27557 14.9326 6.63176 14.9804 7.00382C15.0278 7.37225 14.9889 7.74715 14.8665 8.09785L13.121 13.4228L13.1145 13.442C13.1088 13.458 13.1028 13.475 13.0966 13.4929C13.0058 13.7521 12.854 14.1857 12.5031 14.5062C12.088 14.8854 11.5431 15 10.9336 15C9.26109 15 7.46666 14.4471 6.07174 14.0172C5.73859 13.9146 5.42823 13.8189 5.14776 13.7395C4.70493 13.6142 4.44757 13.1535 4.57294 12.7107C4.69831 12.2679 5.15893 12.0105 5.60176 12.1359C5.95559 12.2361 6.31876 12.3472 6.68817 12.4603C8.07044 12.8835 9.53999 13.3333 10.9336 13.3333C11.2426 13.3333 11.3534 13.2891 11.3799 13.2746C11.3846 13.2688 11.3977 13.2508 11.418 13.2092C11.4524 13.1385 11.4851 13.0497 11.5404 12.894L13.2855 7.57033L13.2918 7.5517C13.3296 7.44508 13.342 7.32993 13.3274 7.21647C13.3128 7.10304 13.2719 6.99634 13.2097 6.90524C13.1476 6.81423 13.0665 6.74204 12.9747 6.69301C12.9526 6.68122 12.9365 6.67308 12.9254 6.66763C12.9089 6.66707 12.8843 6.66668 12.8459 6.66667C12.8457 6.66667 12.846 6.66667 12.8459 6.66667H8.75C8.28976 6.66667 7.91667 6.29357 7.91667 5.83333C7.91667 5.3731 8.28976 5 8.75 5H9.13103L10.0795 2.18971C10.0796 2.13513 10.0718 2.08083 10.0561 2.02879C10.0342 1.95582 9.99782 1.88994 9.95063 1.83509C9.9035 1.78029 9.84683 1.7379 9.78523 1.7094C9.72371 1.68094 9.65794 1.66663 9.59208 1.66667L9.59064 1.66667ZM11.3867 13.27C11.3869 13.2701 11.3852 13.2716 11.381 13.274C11.3844 13.2711 11.3865 13.2699 11.3867 13.27ZM2.5 7.5H1.66667V12.0833C1.66667 12.3135 1.85321 12.5 2.08333 12.5C2.31345 12.5 2.5 12.3135 2.5 12.0833V7.5Z" fill="white"/>
</svg>
