<svg viewBox="0 0 21.3333 24" fill="none" xmlns="http://www.w3.org/2000/svg">
<path fill-rule="evenodd" clip-rule="evenodd" d="M0 1.33333C0 0.596954 0.596954 0 1.33333 0H20C20.7364 0 21.3333 0.596954 21.3333 1.33333C21.3333 2.06971 20.7364 2.66667 20 2.66667V21.3333C20.7364 21.3333 21.3333 21.9303 21.3333 22.6667C21.3333 23.403 20.7364 24 20 24H1.33333C0.596954 24 0 23.403 0 22.6667C0 21.9303 0.596954 21.3333 1.33333 21.3333V2.66667C0.596954 2.66667 0 2.06971 0 1.33333ZM4 2.66667V21.3333H6.66667V17.3333C6.66667 16.6261 6.94762 15.9478 7.44772 15.4477C7.94781 14.9476 8.62609 14.6667 9.33334 14.6667H12C12.7072 14.6667 13.3855 14.9476 13.8856 15.4477C14.3857 15.9478 14.6667 16.6261 14.6667 17.3333V21.3333H17.3333V2.66667H4ZM12 21.3333V17.3333H9.33334V21.3333H12ZM5.33333 5.33333C5.33333 4.59695 5.93029 4 6.66667 4H8C8.73638 4 9.33334 4.59695 9.33334 5.33333V6.66667C9.33334 7.40305 8.73638 8 8 8H6.66667C5.93029 8 5.33333 7.40305 5.33333 6.66667V5.33333ZM12 5.33333C12 4.59695 12.597 4 13.3333 4H14.6667C15.4031 4 16 4.59695 16 5.33333V6.66667C16 7.40305 15.4031 8 14.6667 8H13.3333C12.597 8 12 7.40305 12 6.66667V5.33333ZM5.33333 10.6667C5.33333 9.93029 5.93029 9.33333 6.66667 9.33333H8C8.73638 9.33333 9.33334 9.93029 9.33334 10.6667V12C9.33334 12.7364 8.73638 13.3333 8 13.3333H6.66667C5.93029 13.3333 5.33333 12.7364 5.33333 12V10.6667ZM12 10.6667C12 9.93029 12.597 9.33333 13.3333 9.33333H14.6667C15.4031 9.33333 16 9.93029 16 10.6667V12C16 12.7364 15.4031 13.3333 14.6667 13.3333H13.3333C12.597 13.3333 12 12.7364 12 12V10.6667Z" fill="#155DFC"/>
</svg>
