<svg viewBox="0 0 13.2232 13.1657" fill="none" xmlns="http://www.w3.org/2000/svg">
<path fill-rule="evenodd" clip-rule="evenodd" d="M2.88556 2.02788C1.77103 3.13549 1.51176 4.26287 1.74546 5.38539C1.99249 6.5719 2.8136 7.84712 4.06403 9.09775C5.3145 10.3484 6.58958 11.1705 7.77679 11.4191C8.90067 11.6545 10.0294 11.3969 11.139 10.2858C11.1565 10.2684 11.1747 10.2517 11.1937 10.2358C11.194 10.2356 11.1947 10.235 11.1953 10.2344L11.2 10.2303C11.2041 10.2266 11.2095 10.2216 11.2162 10.2152C11.2297 10.2023 11.2465 10.1858 11.2658 10.1659C11.3047 10.126 11.3485 10.0782 11.3911 10.0287C11.4342 9.97863 11.4709 9.93268 11.4976 9.89616C11.5088 9.88088 11.5158 9.87052 11.5196 9.86471C11.544 9.80737 11.5566 9.74562 11.5566 9.68316C11.5566 9.61526 11.5417 9.54821 11.513 9.48673C11.4843 9.42526 11.4425 9.37088 11.3906 9.32741C11.3717 9.31159 11.3535 9.29494 11.3361 9.2775L10.3835 8.32425C10.2113 8.15188 10.1044 8.10619 10.0641 8.09414C10.037 8.08606 10.0152 8.08391 9.96756 8.09987C9.90372 8.12128 9.8059 8.17327 9.66186 8.28659C9.51933 8.39873 9.3713 8.53823 9.19006 8.7118C8.77127 9.12707 8.20533 9.3603 7.61524 9.3603C7.02177 9.3603 6.45272 9.12439 6.03323 8.70464L4.47403 7.14439C4.47396 7.14432 4.47409 7.14446 4.47403 7.14439C4.1359 6.80621 3.79032 6.32783 3.73876 5.71564C3.6842 5.06768 3.97332 4.48013 4.47375 3.97959C4.47384 3.9795 4.47366 3.97969 4.47375 3.97959L4.8535 3.5995C4.96038 3.49229 5.02077 3.34665 5.02077 3.19495C5.02077 3.01354 4.97131 2.90836 4.88399 2.82088L3.89174 1.82793C3.79344 1.72956 3.71618 1.69422 3.66537 1.67961C3.61273 1.66448 3.55042 1.66085 3.47056 1.67721C3.29288 1.7136 3.07431 1.84174 2.88556 2.02788ZM3.13615 0.0444344C3.78154 -0.0877536 4.48509 0.0638473 5.07066 0.649835L6.06324 1.64311C6.50203 2.0827 6.68744 2.63138 6.68744 3.19495C6.68744 3.7881 6.45215 4.35711 6.03308 4.77694L5.65281 5.15756C5.3865 5.42387 5.39784 5.55632 5.39949 5.57506C5.39951 5.57533 5.39947 5.57485 5.39949 5.57506C5.40383 5.62662 5.4437 5.75705 5.65254 5.96588L7.21209 7.52649C7.31912 7.63358 7.46414 7.69363 7.61524 7.69363C7.76633 7.69363 7.91136 7.63358 8.01838 7.52649L8.03135 7.51379C8.04467 7.50103 8.05829 7.48796 8.0722 7.4746C8.39207 7.16747 8.86775 6.71075 9.4378 6.51964C9.77255 6.40742 10.1477 6.37967 10.5412 6.49721C10.9213 6.61078 11.2584 6.84191 11.5624 7.14617L12.4921 8.0765C12.7163 8.2718 12.8973 8.512 13.0232 8.7817C13.155 9.06395 13.2232 9.37167 13.2232 9.68316C13.2232 9.99465 13.155 10.3024 13.0232 10.5846C12.9293 10.7858 12.76 10.9932 12.6545 11.1157C12.5451 11.2429 12.4115 11.3844 12.2957 11.4862C10.8131 12.9581 9.12789 13.405 7.43512 13.0504C5.79705 12.7073 4.24402 11.635 2.88542 10.2762C1.52679 8.91731 0.45489 7.36351 0.113784 5.72509C-0.240582 4.02298 0.216705 2.32981 1.71189 0.844549L1.71362 0.842825C2.04723 0.513369 2.54224 0.166076 3.13615 0.0444344Z" fill="#52525C"/>
</svg>
