<svg viewBox="0 0 24 21.3333" fill="none" xmlns="http://www.w3.org/2000/svg">
<path fill-rule="evenodd" clip-rule="evenodd" d="M8 2.66667C6.52724 2.66667 5.33333 3.86057 5.33333 5.33333C5.33333 6.80609 6.52724 8 8 8C9.47276 8 10.6667 6.80609 10.6667 5.33333C10.6667 3.86057 9.47276 2.66667 8 2.66667ZM2.66667 5.33333C2.66667 2.38781 5.05448 0 8 0C10.9455 0 13.3333 2.38781 13.3333 5.33333C13.3333 8.27885 10.9455 10.6667 8 10.6667C5.05448 10.6667 2.66667 8.27885 2.66667 5.33333ZM18.6667 8V9.50136C19.156 9.62731 19.6182 9.82097 20.0426 10.0718L21.1045 9.00983L22.9902 10.8954L21.9282 11.9574C22.179 12.3818 22.3727 12.844 22.4987 13.3334L24 13.3334L23.9999 16.0001L22.4986 16C22.3727 16.4894 22.179 16.9516 21.9282 17.376L22.9902 18.4379L21.1046 20.3235L20.0426 19.2616C19.6182 19.5124 19.156 19.706 18.6667 19.832V21.3333H16V19.832C15.5106 19.706 15.0484 19.5124 14.624 19.2616L13.5621 20.3235L11.6765 18.4379L12.7384 17.3759C12.4876 16.9516 12.294 16.4894 12.168 16.0001L10.6667 16.0001L10.6666 13.3335L12.168 13.3334C12.294 12.844 12.4876 12.3818 12.7384 11.9574L11.6765 10.8954L13.5621 9.00981L14.624 10.0718C15.0485 9.82097 15.5106 9.62731 16 9.50136V8H18.6667ZM15.444 16.5486C15.4465 16.551 15.449 16.5535 15.4514 16.556C15.9337 17.0364 16.5988 17.3333 17.3333 17.3333C18.8061 17.3333 20 16.1394 20 14.6667C20 13.9352 19.7055 13.2725 19.2286 12.7907L19.2093 12.7714C18.7275 12.2945 18.0648 12 17.3333 12C15.8606 12 14.6667 13.1939 14.6667 14.6667C14.6667 15.4012 14.9636 16.0663 15.444 16.5486ZM5.33333 14.6667C3.86057 14.6667 2.66667 15.8606 2.66667 17.3333V18.6667H10.6667V21.3333H2.66667C1.19391 21.3333 0 20.1394 0 18.6667V17.3333C0 14.3878 2.38781 12 5.33333 12H9.33333V14.6667H5.33333Z" fill="#155DFC"/>
</svg>
