<svg viewBox="0 0 24 24.13" fill="none" xmlns="http://www.w3.org/2000/svg">
<path fill-rule="evenodd" clip-rule="evenodd" d="M8.82356 7.10569C9.21118 6.56213 9.38407 5.88749 9.2969 5.21478L9.10467 3.73118C8.99173 2.8596 8.4566 2.09963 7.67409 1.69953L5.03166 0.348465C4.00181 -0.178092 2.74994 0.0192841 1.93206 0.83716L0.781121 1.9881C-0.0367552 2.80598 -0.234131 4.05785 0.292425 5.0877L1.64349 7.73013C2.04359 8.51264 2.80356 9.04777 3.67514 9.16071L5.15874 9.35294C5.77723 9.43308 6.39736 9.2934 6.91575 8.96911L8.06751 10.1208L6.35867 11.8297C4.72499 11.7531 3.06319 12.3374 1.81223 13.5883C-0.107541 15.5081 -0.458716 18.3945 0.744902 20.6697C1.03326 21.2148 1.49768 21.6366 2.05223 21.8741C2.28976 22.4287 2.71153 22.8931 3.25661 23.1814C5.53183 24.385 8.41822 24.0339 10.338 22.1141C11.4909 20.9612 12.0775 19.4594 12.1025 17.9522C12.2755 18.2556 12.4915 18.5412 12.7504 18.8001L16.9086 22.9583C18.4707 24.5204 21.0034 24.5203 22.5655 22.9583L22.7947 22.729C24.3568 21.1669 24.3568 18.6342 22.7947 17.0721L18.6365 12.9139C18.3059 12.5832 17.9317 12.3226 17.5324 12.1319L17.6145 12.0498C19.2482 12.1263 20.91 11.5421 22.161 10.2911C24.0808 8.37134 24.4319 5.48495 23.2283 3.20973C22.9399 2.66465 22.4755 2.24288 21.921 2.00535C21.6835 1.4508 21.2617 0.986381 20.7166 0.698023C18.4414 -0.505593 15.555 -0.154424 13.6352 1.76535C12.3843 3.01631 11.8 4.67811 11.8766 6.31179L9.95313 8.23523L8.82356 7.10569ZM14.7498 7.20984L7.25672 14.7029C6.3764 14.3731 5.38558 14.4252 4.54016 14.8591C4.23671 15.0149 3.952 15.2198 3.69785 15.474C3.58695 15.5849 3.48542 15.7016 3.39326 15.8231C2.75285 16.6678 2.56472 17.7459 2.82885 18.7278C2.89313 18.9667 2.9842 19.2 3.10206 19.4228L5.04747 17.4773L6.44899 18.8789L4.50358 20.8243C4.72637 20.9421 4.95961 21.0332 5.19856 21.0975C6.18041 21.3616 7.25857 21.1735 8.1032 20.5331C8.22476 20.4409 8.34148 20.3394 8.45238 20.2285C8.7063 19.9746 8.91111 19.6901 9.06681 19.387C9.50114 18.5414 9.55335 17.5502 9.22346 16.6696L16.7165 9.17658C17.5968 9.50637 18.5876 9.45429 19.433 9.02035C19.7365 8.8646 20.0212 8.65964 20.2754 8.4055C20.3863 8.2946 20.4878 8.17788 20.58 8.05633C21.2204 7.21169 21.4085 6.13353 21.1444 5.15169C21.0801 4.91273 20.989 4.67949 20.8712 4.4567L18.9257 6.40211L17.5242 5.00059L19.4696 3.05518C19.2468 2.93732 19.0136 2.84625 18.7746 2.78197C17.7928 2.51784 16.7146 2.70597 15.87 3.34638C15.7485 3.43854 15.6317 3.54007 15.5208 3.65097C15.2669 3.90489 15.0621 4.18932 14.9064 4.49247C14.4721 5.33806 14.4199 6.32924 14.7498 7.20984ZM4.01781 6.51615L2.66674 3.87372L3.81768 2.72278L6.46011 4.07385L6.65234 5.55744L5.5014 6.70838L4.01781 6.51615ZM16.7509 14.7995L20.9091 18.9578C21.4298 19.4785 21.4298 20.3227 20.9091 20.8434L20.6799 21.0726C20.1592 21.5933 19.3149 21.5933 18.7942 21.0726L14.636 16.9144C14.1153 16.3937 14.1153 15.5495 14.636 15.0288L14.8653 14.7995C15.386 14.2788 16.2302 14.2788 16.7509 14.7995Z" fill="#155DFC"/>
</svg>
