<svg viewBox="0 0 21.3333 26.6667" fill="none" xmlns="http://www.w3.org/2000/svg">
<path fill-rule="evenodd" clip-rule="evenodd" d="M6.66667 1.33333C6.66667 0.596954 7.26362 0 8 0H13.3333C14.0697 0 14.6667 0.596954 14.6667 1.33333H18.6667C20.1394 1.33333 21.3333 2.52724 21.3333 4V24C21.3333 25.4728 20.1394 26.6667 18.6667 26.6667H2.66667C1.19391 26.6667 0 25.4728 0 24V4C0 2.52724 1.19391 1.33333 2.66667 1.33333H6.66667ZM6.66667 4H2.66667V24H18.6667V4H14.6667V5.33333C15.403 5.33333 16 5.93029 16 6.66667C16 7.40305 15.403 8 14.6667 8H6.66667C5.93029 8 5.33333 7.40305 5.33333 6.66667C5.33333 5.93029 5.93029 5.33333 6.66667 5.33333V4ZM9.33333 5.33333H12V2.66667H9.33333V5.33333ZM15.6095 12.3905C16.1302 12.9112 16.1302 13.7554 15.6095 14.2761L10.2761 19.6095C9.75544 20.1302 8.91122 20.1302 8.39052 19.6095L5.72386 16.9428C5.20316 16.4221 5.20316 15.5779 5.72386 15.0572C6.24456 14.5365 7.08878 14.5365 7.60948 15.0572L9.33333 16.781L13.7239 12.3905C14.2446 11.8698 15.0888 11.8698 15.6095 12.3905Z" fill="#155DFC"/>
</svg>
