<svg viewBox="0 0 14.979 15.0811" fill="none" xmlns="http://www.w3.org/2000/svg">
<path fill-rule="evenodd" clip-rule="evenodd" d="M5.51473 4.44106C5.75699 4.10133 5.86504 3.67968 5.81057 3.25924L5.69042 2.33199C5.61983 1.78725 5.28538 1.31227 4.79631 1.06221L3.14479 0.21779C2.50113 -0.111308 1.71871 0.0120526 1.20754 0.523225L0.488201 1.24256C-0.022972 1.75373 -0.146332 2.53616 0.182766 3.17981L1.02718 4.83133C1.27724 5.3204 1.75223 5.65486 2.29696 5.72544L3.22421 5.84559C3.61077 5.89568 3.99835 5.80838 4.32234 5.6057L5.0422 6.32553L3.97417 7.39356C2.95312 7.34571 1.9145 7.71086 1.13265 8.49271C-0.067213 9.69257 -0.286698 11.4966 0.465564 12.9186C0.645788 13.2593 0.936047 13.5229 1.28264 13.6713C1.4311 14.0179 1.6947 14.3082 2.03538 14.4884C3.45739 15.2407 5.26139 15.0212 6.46125 13.8213C7.1818 13.1008 7.54843 12.1621 7.56403 11.2201C7.67221 11.4097 7.8072 11.5882 7.96901 11.75L10.5679 14.3489C11.5442 15.3252 13.1271 15.3252 14.1034 14.3489L14.2467 14.2056C15.223 13.2293 15.223 11.6464 14.2467 10.6701L11.6478 8.07121C11.4412 7.86453 11.2073 7.7016 10.9578 7.58243L11.0091 7.5311C12.0301 7.57895 13.0688 7.2138 13.8506 6.43195C15.0505 5.23209 15.27 3.42809 14.5177 2.00608C14.3375 1.6654 14.0472 1.4018 13.7006 1.25334C13.5522 0.906747 13.2886 0.616488 12.9479 0.436264C11.5259 -0.315996 9.72187 -0.0965147 8.52201 1.10335C7.74016 1.88519 7.37501 2.92382 7.42286 3.94487L6.22071 5.14702L5.51473 4.44106ZM9.2186 4.50615L4.53545 9.1893C3.98525 8.98318 3.36599 9.01573 2.8376 9.28694C2.64795 9.38429 2.47 9.51238 2.31116 9.67122C2.24185 9.74053 2.17839 9.81348 2.12079 9.88945C1.72053 10.4173 1.60295 11.0912 1.76803 11.7049C1.80821 11.8542 1.86513 12 1.93879 12.1392L3.15467 10.9233L4.03062 11.7993L2.81474 13.0152C2.95398 13.0888 3.09976 13.1457 3.2491 13.1859C3.86276 13.351 4.53661 13.2334 5.0645 12.8332C5.14047 12.7756 5.21342 12.7121 5.28274 12.6428C5.44144 12.4841 5.56944 12.3063 5.66676 12.1169C5.93821 11.5884 5.97085 10.9689 5.76466 10.4185L10.4478 5.73536C10.998 5.94148 11.6173 5.90893 12.1457 5.63772C12.3353 5.54037 12.5133 5.41228 12.6721 5.25343C12.7414 5.18412 12.8049 5.11117 12.8625 5.0352C13.2627 4.50731 13.3803 3.83346 13.2152 3.2198C13.1751 3.07046 13.1181 2.92468 13.0445 2.78544L11.8286 4.00132L10.9526 3.12537L12.1685 1.90949C12.0293 1.83583 11.8835 1.77891 11.7342 1.73873C11.1205 1.57365 10.4466 1.69123 9.91875 2.09149C9.84278 2.14909 9.76983 2.21255 9.70052 2.28186C9.54182 2.44056 9.41382 2.61833 9.3165 2.80779C9.04505 3.33629 9.01241 3.95578 9.2186 4.50615ZM2.51113 4.07259L1.66671 2.42107L2.38605 1.70174L4.03757 2.54615L4.15772 3.4734L3.43838 4.19274L2.51113 4.07259ZM10.4693 9.24972L13.0682 11.8486C13.3936 12.174 13.3936 12.7017 13.0682 13.0271L12.9249 13.1704C12.5995 13.4958 12.0718 13.4958 11.7464 13.1704L9.14752 10.5715C8.82209 10.2461 8.82209 9.71844 9.14752 9.39301L9.29082 9.24972C9.61625 8.92428 10.1439 8.92428 10.4693 9.24972Z" fill="white"/>
</svg>
