<svg viewBox="0 0 21.1572 21.0652" fill="none" xmlns="http://www.w3.org/2000/svg">
<path fill-rule="evenodd" clip-rule="evenodd" d="M4.61689 3.24461C2.83365 5.01679 2.41882 6.82059 2.79274 8.61662C3.18798 10.515 4.50177 12.5554 6.50245 14.5564C8.5032 16.5575 10.5433 17.8727 12.4429 18.2706C14.2411 18.6472 16.047 18.2351 17.8225 16.4574C17.8504 16.4294 17.8796 16.4027 17.9099 16.3773C17.9103 16.3769 17.9115 16.3759 17.9124 16.3751L17.9199 16.3684C17.9265 16.3625 17.9352 16.3545 17.9459 16.3443C17.9676 16.3237 17.9944 16.2973 18.0253 16.2655C18.0875 16.2016 18.1577 16.1251 18.2258 16.0459C18.2947 15.9658 18.3535 15.8923 18.3962 15.8339C18.4141 15.8094 18.4253 15.7928 18.4314 15.7835C18.4704 15.6918 18.4905 15.593 18.4905 15.4931C18.4905 15.3844 18.4667 15.2771 18.4208 15.1788C18.3749 15.0804 18.308 14.9934 18.2249 14.9239C18.1947 14.8985 18.1656 14.8719 18.1377 14.844L16.6136 13.3188C16.338 13.043 16.167 12.9699 16.1025 12.9506C16.0593 12.9377 16.0243 12.9342 15.9481 12.9598C15.8459 12.994 15.6894 13.0772 15.459 13.2586C15.2309 13.438 14.9941 13.6612 14.7041 13.9389C14.034 14.6033 13.1285 14.9765 12.1844 14.9765C11.2348 14.9765 10.3243 14.599 9.65316 13.9274L7.15844 11.431C7.15833 11.4309 7.15855 11.4311 7.15844 11.431C6.61743 10.8899 6.0645 10.1245 5.98202 9.14503C5.89472 8.10829 6.35732 7.16821 7.15801 6.36735C7.15815 6.36721 7.15786 6.3675 7.15801 6.36735L7.7656 5.7592C7.9366 5.58766 8.03323 5.35463 8.03323 5.11192C8.03323 4.82166 7.9541 4.65338 7.81438 4.51341L6.22678 2.92469C6.0695 2.7673 5.94589 2.71075 5.8646 2.68738C5.78037 2.66317 5.68066 2.65736 5.5529 2.68353C5.26861 2.74176 4.91889 2.94678 4.61689 3.24461ZM5.01783 0.071095C6.05047 -0.140406 7.17614 0.102156 8.11306 1.03974L9.70119 2.62898C10.4033 3.33232 10.6999 4.21021 10.6999 5.11192C10.6999 6.06096 10.3234 6.97138 9.65292 7.64311L9.04449 8.2521C8.6184 8.6782 8.63655 8.89011 8.63918 8.9201C8.63922 8.92052 8.63915 8.91975 8.63918 8.9201C8.64613 9.00259 8.70993 9.21128 9.04406 9.54541L11.5393 12.0424C11.7106 12.2137 11.9426 12.3098 12.1844 12.3098C12.4261 12.3098 12.6582 12.2137 12.8294 12.0424L12.8502 12.0221C12.8715 12.0017 12.8933 11.9807 12.9155 11.9594C13.4273 11.468 14.1884 10.7372 15.1005 10.4314C15.6361 10.2519 16.2363 10.2075 16.8658 10.3955C17.4741 10.5773 18.0135 10.9471 18.4999 11.4339L19.9874 12.9224C20.3461 13.2349 20.6356 13.6192 20.8371 14.0507C21.0479 14.5023 21.1572 14.9947 21.1572 15.4931C21.1572 15.9914 21.0479 16.4838 20.8371 16.9354C20.6868 17.2573 20.4159 17.5891 20.2472 17.7852C20.0722 17.9886 19.8584 18.215 19.6731 18.3779C17.301 20.7329 14.6046 21.4479 11.8962 20.8806C9.27528 20.3317 6.79043 18.616 4.61668 16.4419C2.44286 14.2677 0.727825 11.7816 0.182055 9.16015C-0.38493 6.43677 0.346728 3.7277 2.73902 1.35128L2.7418 1.34852C3.27557 0.82139 4.06759 0.265721 5.01783 0.071095Z" fill="#155DFC"/>
</svg>
