<svg viewBox="0 0 15 13.3333" fill="none" xmlns="http://www.w3.org/2000/svg">
<path fill-rule="evenodd" clip-rule="evenodd" d="M5 1.66667C4.07953 1.66667 3.33333 2.41286 3.33333 3.33333C3.33333 4.25381 4.07953 5 5 5C5.92047 5 6.66667 4.25381 6.66667 3.33333C6.66667 2.41286 5.92047 1.66667 5 1.66667ZM1.66667 3.33333C1.66667 1.49238 3.15905 0 5 0C6.84095 0 8.33333 1.49238 8.33333 3.33333C8.33333 5.17428 6.84095 6.66667 5 6.66667C3.15905 6.66667 1.66667 5.17428 1.66667 3.33333ZM11.6667 5V5.93835C11.9725 6.01707 12.2614 6.1381 12.5266 6.29484L13.1903 5.63114L14.3688 6.80965L13.7051 7.47335C13.8619 7.73862 13.9829 8.02749 14.0617 8.33335L15 8.33338L14.9999 10L14.0616 10C13.9829 10.3059 13.8619 10.5947 13.7052 10.86L14.3689 11.5237L13.1904 12.7022L12.5266 12.0385C12.2614 12.1952 11.9725 12.3163 11.6667 12.395V13.3333H10V12.395C9.69415 12.3163 9.40528 12.1952 9.14002 12.0385L8.47631 12.7022L7.2978 11.5237L7.96151 10.86C7.80478 10.5947 7.68374 10.3059 7.60502 10L6.6667 10.0001L6.66662 8.33342L7.60501 8.33337C7.68373 8.0275 7.80477 7.73863 7.96152 7.47336L7.2978 6.80964L8.47631 5.63113L9.14003 6.29485C9.40529 6.13811 9.69415 6.01707 10 5.93835V5H11.6667ZM9.6525 10.3428C9.65405 10.3444 9.6556 10.346 9.65715 10.3475C9.95857 10.6477 10.3743 10.8333 10.8333 10.8333C11.7538 10.8333 12.5 10.0871 12.5 9.16667C12.5 8.7095 12.3159 8.29533 12.0179 7.99421L12.0058 7.98213C11.7047 7.68406 11.2905 7.5 10.8333 7.5C9.91286 7.5 9.16667 8.24619 9.16667 9.16667C9.16667 9.62572 9.35226 10.0414 9.6525 10.3428ZM3.33333 9.16667C2.41286 9.16667 1.66667 9.91286 1.66667 10.8333V11.6667H6.66667V13.3333H1.66667C0.746192 13.3333 0 12.5871 0 11.6667V10.8333C0 8.99238 1.49238 7.5 3.33333 7.5H5.83333V9.16667H3.33333Z" fill="white"/>
</svg>
