<svg preserveAspectRatio="none" width="100%" height="100%" overflow="visible" style="display: block;" viewBox="0 0 13.3344 13.3335" fill="none" xmlns="http://www.w3.org/2000/svg">
<g id="Vector">
<path id="Vector_2" d="M6.66687 13.3334C10.3489 13.3334 13.3337 10.3486 13.3337 6.66669C13.3337 2.98479 10.3489 2.02656e-05 6.66687 2.02656e-05C2.98486 2.02656e-05 0 2.98479 0 6.66669C0 10.3486 2.98486 13.3334 6.66687 13.3334Z" fill="var(--fill-0, white)"/>
<g id="Group">
<path id="Vector_3" d="M6.37822 6.66659H13.3344C13.3344 6.06492 13.2542 5.48205 13.1047 4.92759H6.37822V6.66659Z" fill="var(--fill-0, #D80027)"/>
<path id="Vector_4" d="M6.37822 3.18849H12.3559C11.9479 2.5226 11.4261 1.93403 10.8177 1.44948H6.37822V3.18849Z" fill="var(--fill-0, #D80027)"/>
<path id="Vector_5" d="M6.66711 13.3334C8.23602 13.3334 9.67806 12.7911 10.8168 11.8842H2.51742C3.65616 12.7911 5.0982 13.3334 6.66711 13.3334Z" fill="var(--fill-0, #D80027)"/>
<path id="Vector_6" d="M0.978887 10.1451H12.3556C12.6832 9.61048 12.9373 9.0261 13.1044 8.40595H0.230036C0.39715 9.0261 0.651247 9.61048 0.978887 10.1451V10.1451Z" fill="var(--fill-0, #D80027)"/>
</g>
<path id="Vector_7" d="M3.08798 1.04103H3.69547L3.1304 1.45155L3.34625 2.11579L2.78119 1.70528L2.21614 2.11579L2.40259 1.54196C1.90506 1.95638 1.46899 2.44191 1.10963 2.98291H1.30429L0.94459 3.24422C0.888551 3.3377 0.834804 3.43267 0.783296 3.52904L0.955058 4.05767L0.634605 3.82485C0.554947 3.99361 0.482086 4.16618 0.416595 4.34233L0.60583 4.92479H1.30429L0.739209 5.3353L0.955058 5.99955L0.390007 5.58903L0.051534 5.83495C0.0176554 6.10727 0 6.38465 0 6.66616H6.66635C6.66635 2.98458 6.66635 2.55055 6.66635 2.02656e-05C5.34943 2.02656e-05 4.12181 0.382021 3.08798 1.04103V1.04103ZM3.34625 5.99955L2.78119 5.58903L2.21614 5.99955L2.43199 5.3353L1.86692 4.92479H2.56537L2.78119 4.26054L2.99702 4.92479H3.69547L3.1304 5.3353L3.34625 5.99955ZM3.1304 3.39342L3.34625 4.05767L2.78119 3.64715L2.21614 4.05767L2.43199 3.39342L1.86692 2.98291H2.56537L2.78119 2.31867L2.99702 2.98291H3.69547L3.1304 3.39342ZM5.73743 5.99955L5.17238 5.58903L4.60733 5.99955L4.82318 5.3353L4.2581 4.92479H4.95656L5.17238 4.26054L5.38821 4.92479H6.08666L5.52158 5.3353L5.73743 5.99955ZM5.52158 3.39342L5.73743 4.05767L5.17238 3.64715L4.60733 4.05767L4.82318 3.39342L4.2581 2.98291H4.95656L5.17238 2.31867L5.38821 2.98291H6.08666L5.52158 3.39342ZM5.52158 1.45155L5.73743 2.11579L5.17238 1.70528L4.60733 2.11579L4.82318 1.45155L4.2581 1.04103H4.95656L5.17238 0.376787L5.38821 1.04103H6.08666L5.52158 1.45155Z" fill="var(--fill-0, #1A47B8)"/>
</g>
</svg>
