<svg preserveAspectRatio="none" width="100%" height="100%" overflow="visible" style="display: block;" viewBox="0 0 15 15" fill="none" xmlns="http://www.w3.org/2000/svg">
<path id="Vector" fill-rule="evenodd" clip-rule="evenodd" d="M8.33333 0.833333C8.33333 0.373096 8.70643 0 9.16667 0H11.25C11.7102 0 12.0833 0.373096 12.0833 0.833333C12.0833 1.29357 11.7102 1.66667 11.25 1.66667H10V5.83333C10 6.29357 9.6269 6.66667 9.16667 6.66667C8.70643 6.66667 8.33333 6.29357 8.33333 5.83333V4.16667H6.86852C7.26739 4.76254 7.5 5.47911 7.5 6.25V10H13.3333V5.83333C13.3333 4.91286 12.5871 4.16667 11.6667 4.16667C11.2064 4.16667 10.8333 3.79357 10.8333 3.33333C10.8333 2.8731 11.2064 2.5 11.6667 2.5C13.5076 2.5 15 3.99238 15 5.83333V10.8333C15 11.2936 14.6269 11.6667 14.1667 11.6667H10.8333V14.1667C10.8333 14.6269 10.4602 15 10 15C9.53976 15 9.16667 14.6269 9.16667 14.1667V11.6667H7.5V14.1667C7.5 14.6269 7.1269 15 6.66667 15C6.20643 15 5.83333 14.6269 5.83333 14.1667V11.6667H0.833333C0.373096 11.6667 0 11.2936 0 10.8333V6.25C0 4.17893 1.67893 2.5 3.75 2.5H8.33333V0.833333ZM5.83333 10V6.25C5.83333 5.09941 4.90059 4.16667 3.75 4.16667C2.59941 4.16667 1.66667 5.09941 1.66667 6.25V10H5.83333ZM2.5 8.75C2.5 8.28976 2.8731 7.91667 3.33333 7.91667H4.16667C4.6269 7.91667 5 8.28976 5 8.75C5 9.21024 4.6269 9.58333 4.16667 9.58333H3.33333C2.8731 9.58333 2.5 9.21024 2.5 8.75Z" fill="var(--fill-0, #52525C)"/>
</svg>
