<svg viewBox="0 0 13.3333 16.6725" fill="none" xmlns="http://www.w3.org/2000/svg">
<path fill-rule="evenodd" clip-rule="evenodd" d="M6.58294 0.000526031C7.80267 -0.0147951 9.00323 0.304833 10.0539 0.924605C11.1045 1.54438 11.965 2.44053 12.5416 3.51549C13.1182 4.59045 13.3888 5.803 13.3239 7.0211C13.2613 8.19727 12.8882 9.33507 12.2437 10.3191C12.2144 10.3795 12.1774 10.4368 12.133 10.4897L12.0432 10.5968C11.8948 10.7998 11.7352 10.9944 11.5652 11.1797L7.30527 16.368C7.14711 16.5606 6.91104 16.6723 6.6618 16.6725C6.41256 16.6727 6.17633 16.5613 6.0179 16.3689L1.64603 11.0593C1.6455 11.0587 1.64497 11.0581 1.64444 11.0574C1.55788 10.9535 1.47215 10.8472 1.38736 10.7397L1.27577 10.6043C1.23275 10.5522 1.19685 10.4958 1.16824 10.4365C0.508149 9.47376 0.111894 8.35372 0.0204344 7.18821C-0.0749944 5.97212 0.165062 4.75315 0.714464 3.66405C1.26387 2.57495 2.10155 1.65746 3.1363 1.0115C4.17105 0.36553 5.3632 0.0158472 6.58294 0.000526031ZM2.65015 9.65135L2.67917 9.68653L2.69095 9.70115C2.77039 9.80205 2.84883 9.89928 2.9264 9.99236L2.92955 9.99613L2.92953 9.99614L6.6603 14.5271L10.2922 10.1037C10.3026 10.091 10.3133 10.0787 10.3244 10.0667C10.4627 9.91723 10.5918 9.75963 10.7112 9.59474C10.7228 9.57867 10.735 9.56303 10.7477 9.54784L10.7829 9.50592C10.7875 9.49874 10.7922 9.49161 10.797 9.48454C11.3126 8.72879 11.611 7.84607 11.6596 6.93249C11.7082 6.01892 11.5053 5.1095 11.0729 4.30329C10.6404 3.49707 9.99506 2.82495 9.20707 2.36012C8.41909 1.89529 7.51867 1.65557 6.60387 1.66706C5.68907 1.67855 4.79496 1.94081 4.01889 2.42529C3.24283 2.90976 2.61457 3.59788 2.20252 4.41471C1.79046 5.23153 1.61042 6.14576 1.68199 7.05782C1.75356 7.96989 2.07401 8.84484 2.60843 9.58739C2.62339 9.60819 2.63731 9.62954 2.65015 9.65135ZM6.66122 5.00585C5.74074 5.00585 4.99455 5.75204 4.99455 6.67252C4.99455 7.59299 5.74074 8.33918 6.66122 8.33918C7.58169 8.33918 8.32788 7.59299 8.32788 6.67252C8.32788 5.75204 7.58169 5.00585 6.66122 5.00585ZM3.32788 6.67252C3.32788 4.83157 4.82027 3.33918 6.66122 3.33918C8.50217 3.33918 9.99455 4.83157 9.99455 6.67252C9.99455 8.51347 8.50217 10.0058 6.66122 10.0058C4.82027 10.0058 3.32788 8.51347 3.32788 6.67252Z" fill="#52525C"/>
</svg>
