<svg viewBox="0 0 21.3333 26.6667" fill="none" xmlns="http://www.w3.org/2000/svg">
<path fill-rule="evenodd" clip-rule="evenodd" d="M6.66667 1.33333C6.66667 0.596954 7.26362 0 8 0H13.3333C14.0697 0 14.6667 0.596954 14.6667 1.33333H18.6667C20.1394 1.33333 21.3333 2.52724 21.3333 4V24C21.3333 25.4728 20.1394 26.6667 18.6667 26.6667H2.66667C1.19391 26.6667 0 25.4728 0 24V4C0 2.52724 1.19391 1.33333 2.66667 1.33333H6.66667ZM6.66667 4H2.66667V24H18.6667V4H14.6667V5.33333C15.4031 5.33333 16 5.93029 16 6.66667C16 7.40305 15.4031 8 14.6667 8H6.66667C5.93029 8 5.33333 7.40305 5.33333 6.66667C5.33333 5.93029 5.93029 5.33333 6.66667 5.33333V4ZM9.33334 5.33333H12V2.66667H9.33334V5.33333ZM5.33333 13.3333C5.33333 12.597 5.93029 12 6.66667 12H14.6667C15.4031 12 16 12.597 16 13.3333C16 14.0697 15.4031 14.6667 14.6667 14.6667H6.66667C5.93029 14.6667 5.33333 14.0697 5.33333 13.3333ZM5.33333 18.6667C5.33333 17.9303 5.93029 17.3333 6.66667 17.3333H14.6667C15.4031 17.3333 16 17.9303 16 18.6667C16 19.403 15.4031 20 14.6667 20H6.66667C5.93029 20 5.33333 19.403 5.33333 18.6667Z" fill="#155DFC"/>
</svg>
