<svg preserveAspectRatio="none" width="100%" height="100%" overflow="visible" style="display: block;" viewBox="0 0 10.5786 10.5326" fill="none" xmlns="http://www.w3.org/2000/svg">
<path id="Vector" fill-rule="evenodd" clip-rule="evenodd" d="M2.30845 1.62231C1.41682 2.50839 1.20941 3.4103 1.39637 4.30831C1.59399 5.25752 2.25088 6.2777 3.25122 7.2782C4.2516 8.27873 5.27166 8.93637 6.22143 9.1353C7.12054 9.32362 8.02348 9.11754 8.91124 8.22868C8.92521 8.21469 8.9398 8.20133 8.95496 8.18863C8.95517 8.18846 8.95574 8.18796 8.95621 8.18755L8.95997 8.18422C8.96325 8.18126 8.96758 8.17726 8.97295 8.17216C8.9838 8.16185 8.99719 8.14863 9.01264 8.13276C9.04373 8.10081 9.07883 8.06255 9.11289 8.02297C9.14736 7.9829 9.17674 7.94615 9.1981 7.91693C9.20703 7.9047 9.21264 7.89641 9.21569 7.89177C9.23518 7.84589 9.24526 7.7965 9.24526 7.74653C9.24526 7.69221 9.23335 7.63856 9.21039 7.58938C9.18743 7.5402 9.15399 7.4967 9.11245 7.46193C9.09734 7.44927 9.08279 7.43595 9.06885 7.422L8.3068 6.6594C8.16901 6.5215 8.08352 6.48495 8.05127 6.47531C8.02963 6.46885 8.01215 6.46712 7.97405 6.4799C7.92297 6.49702 7.84472 6.53862 7.72949 6.62928C7.61546 6.71899 7.49704 6.83058 7.35205 6.96944C7.01702 7.30166 6.56426 7.48824 6.09219 7.48824C5.61741 7.48824 5.16217 7.29951 4.82658 6.96371L3.57922 5.71551C3.57917 5.71546 3.57927 5.71557 3.57922 5.71551C3.30872 5.44497 3.03225 5.06226 2.99101 4.57251C2.94736 4.05415 3.17866 3.58411 3.579 3.18368C3.57908 3.1836 3.57893 3.18375 3.579 3.18368L3.8828 2.8796C3.9683 2.79383 4.01662 2.67732 4.01662 2.55596C4.01662 2.41083 3.97705 2.32669 3.90719 2.2567L3.11339 1.46235C3.03475 1.38365 2.97295 1.35538 2.9323 1.34369C2.89018 1.33159 2.84033 1.32868 2.77645 1.34176C2.6343 1.37088 2.45944 1.47339 2.30845 1.62231ZM2.50892 0.0355475C3.02524 -0.0702029 3.58807 0.0510778 4.05653 0.519868L4.85059 1.31449C5.20163 1.66616 5.34995 2.1051 5.34995 2.55596C5.34995 3.03048 5.16172 3.48569 4.82646 3.82156L4.52225 4.12605C4.3092 4.3391 4.31827 4.44506 4.31959 4.46005C4.31961 4.46026 4.31958 4.45988 4.31959 4.46005C4.32306 4.5013 4.35496 4.60564 4.52203 4.7727L5.76967 6.02119C5.85529 6.10686 5.97131 6.1549 6.09219 6.1549C6.21307 6.1549 6.32909 6.10686 6.41471 6.02119L6.42508 6.01103C6.43573 6.00083 6.44663 5.99037 6.45776 5.97968C6.71366 5.73398 7.0942 5.3686 7.55024 5.21571C7.81804 5.12593 8.11817 5.10374 8.43292 5.19777C8.73705 5.28863 9.00673 5.47353 9.24996 5.71693L9.99368 6.4612C10.1731 6.61744 10.3178 6.8096 10.4185 7.02536C10.524 7.25116 10.5786 7.49734 10.5786 7.74653C10.5786 7.99572 10.524 8.24189 10.4185 8.4677C10.3434 8.62864 10.208 8.79453 10.1236 8.89258C10.0361 8.99431 9.92922 9.10749 9.83653 9.18895C8.65048 10.3665 7.30231 10.724 5.94809 10.4403C4.63764 10.1658 3.39522 9.30798 2.30834 8.22093C1.22143 7.13385 0.363912 5.89081 0.0910275 4.58007C-0.192465 3.21839 0.173364 1.86385 1.36951 0.675639L1.3709 0.67426C1.63779 0.410695 2.03379 0.132861 2.50892 0.0355475Z" fill="var(--fill-0, white)"/>
</svg>
