<svg preserveAspectRatio="none" width="100%" height="100%" overflow="visible" style="display: block;" viewBox="0 0 142.311 34.7504" fill="none" xmlns="http://www.w3.org/2000/svg">
<g id="Vector">
<path d="M53.2126 7.77161H45.3374C44.7985 7.77161 44.3402 8.16312 44.2561 8.69512L41.071 28.8892C41.0077 29.2877 41.3163 29.6469 41.7205 29.6469H45.4802C46.0191 29.6469 46.4774 29.2554 46.5614 28.7223L47.4205 23.2756C47.5034 22.7425 47.9628 22.3509 48.5006 22.3509H50.9936C56.1812 22.3509 59.1751 19.8406 59.957 14.8661C60.3094 12.6897 59.972 10.9797 58.9529 9.78215C57.8336 8.46712 55.8484 7.77161 53.2126 7.77161ZM54.1211 15.1471C53.6905 17.9729 51.5314 17.9729 49.4437 17.9729H48.2553L49.089 12.6955C49.1385 12.3765 49.4149 12.1416 49.7373 12.1416H50.282C51.7041 12.1416 53.0456 12.1416 53.7388 12.9523C54.1522 13.4359 54.2789 14.1545 54.1211 15.1471Z" fill="var(--fill-0, #162455)"/>
<path d="M76.7532 15.0561H72.982C72.6607 15.0561 72.3832 15.291 72.3337 15.61L72.1667 16.6647L71.903 16.2824C71.0866 15.0975 69.266 14.7014 67.449 14.7014C63.2816 14.7014 59.7223 17.8577 59.0291 22.2853C58.6687 24.4939 59.1811 26.6058 60.4339 28.0786C61.5831 29.4327 63.2275 29.997 65.1839 29.997C68.5417 29.997 70.4037 27.8379 70.4037 27.8379L70.2356 28.8858C70.1723 29.2865 70.4809 29.6458 70.8828 29.6458H74.2797C74.8198 29.6458 75.2758 29.2543 75.361 28.7211L77.3992 15.8138C77.4637 15.4165 77.1562 15.0561 76.7532 15.0561ZM71.4965 22.3958C71.1326 24.5503 69.4226 25.9966 67.2417 25.9966C66.1466 25.9966 65.2714 25.6454 64.7095 24.9798C64.1522 24.3189 63.9403 23.3781 64.1176 22.3302C64.4573 20.1941 66.1961 18.7006 68.3437 18.7006C69.4146 18.7006 70.2851 19.0564 70.8586 19.7278C71.4332 20.406 71.6612 21.3526 71.4965 22.3958Z" fill="var(--fill-0, #162455)"/>
<path d="M96.8379 15.056H93.0482C92.6867 15.056 92.347 15.2357 92.142 15.5362L86.9153 23.2352L84.6998 15.8368C84.5604 15.3738 84.1332 15.056 83.6496 15.056H79.9256C79.473 15.056 79.1587 15.4982 79.3026 15.9243L83.4768 28.1741L79.5525 33.714C79.2439 34.1505 79.5548 34.7504 80.0879 34.7504H83.873C84.2322 34.7504 84.5685 34.5754 84.7723 34.2806L97.3768 16.0866C97.6785 15.6514 97.3687 15.056 96.8379 15.056Z" fill="var(--fill-0, #162455)"/>
<path d="M109.385 7.77161H101.508C100.971 7.77161 100.512 8.16312 100.428 8.69512L97.2431 28.8892C97.1798 29.2877 97.4884 29.6469 97.8903 29.6469H101.932C102.307 29.6469 102.629 29.3729 102.687 28.9998L103.591 23.2756C103.674 22.7425 104.134 22.3509 104.672 22.3509H107.163C112.352 22.3509 115.345 19.8406 116.128 14.8661C116.481 12.6897 116.142 10.9797 115.123 9.78215C114.005 8.46712 112.021 7.77161 109.385 7.77161ZM110.293 15.1471C109.864 17.9729 107.705 17.9729 105.616 17.9729H104.429L105.263 12.6955C105.313 12.3765 105.587 12.1416 105.911 12.1416H106.455C107.876 12.1416 109.219 12.1416 109.912 12.9523C110.325 13.4359 110.451 14.1545 110.293 15.1471Z" fill="var(--fill-0, #162455)"/>
<path d="M132.924 15.0561H129.155C128.832 15.0561 128.556 15.291 128.508 15.61L128.341 16.6647L128.076 16.2824C127.26 15.0975 125.44 14.7014 123.623 14.7014C119.456 14.7014 115.898 17.8577 115.205 22.2853C114.845 24.4939 115.355 26.6058 116.608 28.0786C117.76 29.4327 119.402 29.997 121.358 29.997C124.716 29.997 126.578 27.8379 126.578 27.8379L126.41 28.8858C126.347 29.2865 126.655 29.6458 127.059 29.6458H130.455C130.993 29.6458 131.451 29.2543 131.535 28.7211L133.575 15.8138C133.637 15.4165 133.328 15.0561 132.924 15.0561ZM127.667 22.3958C127.306 24.5503 125.594 25.9966 123.413 25.9966C122.32 25.9966 121.442 25.6454 120.88 24.9798C120.323 24.3189 120.113 23.3781 120.288 22.3302C120.63 20.1941 122.367 18.7006 124.515 18.7006C125.585 18.7006 126.456 19.0564 127.029 19.7278C127.606 20.406 127.834 21.3526 127.667 22.3958Z" fill="var(--fill-0, #162455)"/>
<path d="M137.37 8.32542L134.138 28.8892C134.074 29.2876 134.383 29.6469 134.785 29.6469H138.034C138.574 29.6469 139.033 29.2554 139.116 28.7222L142.303 8.52923C142.366 8.13081 142.058 7.77039 141.656 7.77039H138.017C137.696 7.77154 137.419 8.00645 137.37 8.32542Z" fill="var(--fill-0, #162455)"/>
<path d="M8.36683 33.5713L8.96907 29.746L7.62756 29.7149H1.22168L5.67344 1.48781C5.68726 1.40259 5.73216 1.32314 5.7978 1.26671C5.86344 1.21029 5.9475 1.1792 6.03501 1.1792H16.8362C20.422 1.1792 22.8966 1.92538 24.1886 3.39817C24.7943 4.08908 25.1801 4.81108 25.3666 5.60562C25.5624 6.43932 25.5659 7.43538 25.3747 8.65023L25.3609 8.7389V9.51732L25.9666 9.86047C26.4767 10.1311 26.882 10.4408 27.1929 10.7955C27.7111 11.3862 28.0462 12.137 28.1879 13.0271C28.3341 13.9426 28.2857 15.0319 28.0462 16.2652C27.7699 17.6839 27.3231 18.9194 26.7197 19.9305C26.1646 20.862 25.4576 21.6347 24.6182 22.2335C23.8167 22.8023 22.8644 23.2342 21.7877 23.5105C20.7445 23.7823 19.555 23.9193 18.2503 23.9193H17.4097C16.8086 23.9193 16.2248 24.1358 15.7665 24.5239C15.307 24.92 15.003 25.4612 14.9097 26.0531L14.8464 26.3974L13.7824 33.1395L13.734 33.3871C13.7214 33.4654 13.6995 33.5045 13.6673 33.531C13.6385 33.5552 13.597 33.5713 13.5567 33.5713H8.36683Z" fill="var(--fill-0, #162455)"/>
<path d="M26.5401 8.82861C26.5079 9.03473 26.471 9.24546 26.4296 9.46195C25.0052 16.7752 20.132 19.3016 13.908 19.3016H10.739C9.9779 19.3016 9.3365 19.8544 9.2179 20.6052L7.59541 30.8951L7.13596 33.8119C7.0588 34.3047 7.43881 34.7492 7.93626 34.7492H13.5568C14.2224 34.7492 14.7878 34.2656 14.8926 33.6092L14.9478 33.3236L16.0061 26.608L16.074 26.2395C16.1777 25.5809 16.7442 25.0972 17.4098 25.0972H18.2504C23.6959 25.0972 27.9588 22.8863 29.2047 16.4885C29.7252 13.8158 29.4558 11.5842 28.0786 10.0147C27.6617 9.5414 27.1447 9.14873 26.5401 8.82861Z" fill="#179BD7"/>
<path d="M25.05 8.23454C24.8323 8.17121 24.6078 8.11363 24.3775 8.06181C24.146 8.01115 23.9088 7.96624 23.6647 7.92708C22.8103 7.7889 21.8741 7.72327 20.8711 7.72327H12.4052C12.1967 7.72327 11.9987 7.77048 11.8213 7.85569C11.431 8.04339 11.1408 8.41302 11.0706 8.86557L9.26959 20.2725L9.2179 20.6052C9.3365 19.8544 9.9779 19.3016 10.739 19.3016H13.908C20.132 19.3016 25.0052 16.7741 26.4296 9.46195C26.4722 9.24546 26.5079 9.03473 26.5401 8.82861C26.1797 8.63746 25.7892 8.47405 25.3689 8.33472C25.2653 8.30018 25.1582 8.26678 25.05 8.23454Z" fill="#222D65"/>
<path d="M11.0706 8.86557C11.1408 8.41302 11.4311 8.04333 11.8214 7.85679C11.9999 7.77158 12.1968 7.72436 12.4053 7.72436H20.8712C21.8742 7.72436 22.8103 7.79 23.6648 7.92818C23.9089 7.96733 24.1461 8.01224 24.3776 8.06291C24.6079 8.11473 24.8324 8.1723 25.05 8.23564C25.1583 8.26788 25.2654 8.30127 25.3702 8.33467C25.7905 8.474 26.1808 8.63867 26.5413 8.82867C26.965 6.12606 26.5378 4.28594 25.0765 2.6197C23.4656 0.785333 20.558 0 16.8374 0H6.03623C5.27623 0 4.62793 0.552727 4.51047 1.30467L0.0115023 29.8219C-0.0771644 30.3862 0.358108 30.8952 0.926957 30.8952L7.59541 30.8951L9.26959 20.2725L11.0706 8.86557Z" fill="var(--fill-0, #162455)"/>
</g>
</svg>
