<svg preserveAspectRatio="none" width="100%" height="100%" overflow="visible" style="display: block;" viewBox="0 0 132.837 35" fill="none" xmlns="http://www.w3.org/2000/svg">
<g id="Vector">
<path d="M14.635 0H0V35L14.635 0Z" fill="var(--fill-0, #162455)"/>
<path d="M24.9321 0H39.548V35L24.9321 0Z" fill="var(--fill-0, #162455)"/>
<path d="M19.7837 12.8998L29.0986 35H22.9872L20.2032 27.9638H13.3862L19.7837 12.8998Z" fill="var(--fill-0, #162455)"/>
<path d="M63.4236 22.2578L65.1493 27.206C65.2065 27.3299 65.2923 27.3872 65.4448 27.3872H68.7627C68.9439 27.3872 68.9725 27.3013 68.9439 27.1202L62.0888 8.08042C62.0602 7.92787 62.0316 7.89927 61.879 7.89927H57.7603C57.6459 7.89927 57.5791 7.98508 57.5791 8.10902C57.5219 9.11011 57.4361 9.41521 57.3122 9.71076L51.2007 27.0916C51.1721 27.3013 51.2389 27.3872 51.4105 27.3872H54.3756C54.5568 27.3872 54.6426 27.3299 54.7093 27.1488L56.3397 22.2578H63.4236ZM57.2836 19.0257C58.1798 16.318 59.362 12.8475 59.8387 10.8644H59.8673C60.4584 12.9429 61.8504 17.0616 62.4797 19.0257H57.2836Z" fill="var(--fill-0, #162455)"/>
<path d="M77.7567 27.6827C79.5396 27.6827 81.4369 27.3585 83.3628 26.5291C83.5153 26.4719 83.544 26.4051 83.544 26.2621C83.4867 25.7282 83.42 24.9559 83.42 24.3648V6.44054C83.42 6.32613 83.42 6.26892 83.277 6.26892H80.0449C79.921 6.26892 79.8638 6.32613 79.8638 6.47867V12.552C79.3584 12.4947 79.0057 12.4661 78.5862 12.4661C73.371 12.4661 70.1675 15.908 70.1675 20.2079C70.1675 25.1943 73.4568 27.6827 77.7567 27.6827ZM79.8638 24.3648C79.3298 24.5364 78.7387 24.6032 78.1381 24.6032C75.7736 24.6032 73.8381 23.2684 73.8381 20.0268C73.8381 17.157 75.8308 15.4599 78.4718 15.4599C79.0057 15.4599 79.4729 15.5171 79.8638 15.6696V24.3648Z" fill="var(--fill-0, #162455)"/>
<path d="M93.8548 12.4661C89.4024 12.4661 86.647 15.8794 86.647 20.0935C86.647 23.8595 88.8398 27.6827 93.7881 27.6827C97.9736 27.6827 100.91 24.6032 100.91 19.9982C100.91 15.9366 98.4217 12.4661 93.8548 12.4661ZM93.6737 15.4599C96.1907 15.4599 97.2585 17.6241 97.2585 20.0935C97.2585 23.1444 95.6854 24.6604 93.8548 24.6604C91.5952 24.6604 90.2604 22.7631 90.2604 20.0268C90.2604 17.2142 91.681 15.4599 93.6737 15.4599Z" fill="var(--fill-0, #162455)"/>
<path d="M104.252 6.26892C104.128 6.26892 104.042 6.32613 104.042 6.47867V26.7674C104.042 26.8532 104.128 27.0058 104.252 27.0344C105.672 27.4729 107.16 27.6827 108.695 27.6827C113.09 27.6827 117.361 24.9559 117.361 19.4642C117.361 15.4885 114.634 12.4661 110.363 12.4661C109.381 12.4661 108.466 12.6187 107.665 12.8856L107.627 6.50728C107.627 6.29752 107.57 6.26892 107.36 6.26892H104.252ZM113.71 19.8265C113.71 23.1158 111.46 24.6604 109.028 24.6604C108.523 24.6604 108.075 24.6318 107.665 24.5078V15.8508C108.132 15.6696 108.695 15.5171 109.734 15.5171C112.079 15.5171 113.71 17.0044 113.71 19.8265Z" fill="var(--fill-0, #162455)"/>
<path d="M129.423 20.8944C130.872 20.8944 132.064 20.8658 132.474 20.7704C132.627 20.7418 132.684 20.6846 132.713 20.5607C132.798 20.2365 132.837 19.5596 132.837 18.7301C132.837 15.908 131.139 12.4661 126.754 12.4661C122.273 12.4661 119.784 16.1177 119.784 20.2365C119.784 23.8881 121.71 27.6827 127.106 27.6827C129.128 27.6827 130.434 27.3585 131.559 26.8246C131.673 26.7674 131.731 26.6721 131.731 26.5005V24.0311C131.731 23.8881 131.645 23.8595 131.559 23.9167C130.434 24.3934 129.214 24.6318 127.879 24.6318C124.856 24.6318 123.484 22.9633 123.398 20.8944H129.423ZM123.398 18.3392C123.636 16.89 124.551 15.3169 126.601 15.3169C128.861 15.3169 129.452 17.2142 129.452 18.0722C129.452 18.1008 129.452 18.2248 129.452 18.3106C129.328 18.3392 128.947 18.3392 127.822 18.3392H123.398Z" fill="var(--fill-0, #162455)"/>
</g>
</svg>
