<svg preserveAspectRatio="none" width="100%" height="100%" overflow="visible" style="display: block;" viewBox="0 0 113.659 32.0001" fill="none" xmlns="http://www.w3.org/2000/svg">
<g id="Vector">
<path d="M12.3085 5.1062V14.1939H3.96242V5.1062H0V26.7995H3.96242V18.0069H12.3085V26.7995H16.2709V5.1062H12.3085Z" fill="var(--fill-0, #162455)"/>
<path d="M28.9522 19.7867C28.9522 20.6561 28.6068 21.4899 27.9921 22.1046C27.3773 22.7194 26.5435 23.0647 25.6741 23.0647C24.8047 23.0647 23.971 22.7194 23.3562 22.1046C22.7414 21.4899 22.3961 20.6561 22.3961 19.7867V10.4951H18.6375V19.7867C18.6375 21.6511 19.3781 23.4392 20.6965 24.7575C22.0148 26.0759 23.8029 26.8165 25.6673 26.8165C27.5318 26.8165 29.3198 26.0759 30.6382 24.7575C31.9565 23.4392 32.6972 21.6511 32.6972 19.7867V10.4951H28.9522V19.7867Z" fill="var(--fill-0, #162455)"/>
<path d="M56.8007 11.4527C56.8007 9.54816 58.0606 8.94439 59.441 8.94439C60.5534 8.94439 62.0231 9.79084 62.9841 10.8178L65.4458 7.91738C64.2169 6.25553 61.7241 5.10622 59.6837 5.10622C55.6067 5.10622 52.6577 7.49415 52.6577 11.4527C52.6577 18.797 61.6348 16.4673 61.6348 20.5773C61.6348 21.845 60.4039 22.9652 58.9945 22.9652C56.7715 22.9652 56.0513 21.878 55.0301 20.7287L52.2985 23.569C54.0458 25.7143 56.2008 26.8034 58.7828 26.8034C62.656 26.8034 65.7719 24.3863 65.7719 20.6084C65.7719 12.4545 56.7948 14.988 56.7948 11.4527" fill="var(--fill-0, #162455)"/>
<path d="M112.337 23.3338C110.116 23.3338 109.485 22.3729 109.485 20.9013V14.3878H112.937V11.0874H109.485V6.73286L105.674 8.44324V21.7108C105.674 25.1044 108.015 26.8148 111.226 26.8148C111.73 26.824 112.233 26.7837 112.729 26.6944L113.659 23.2717C113.239 23.3008 112.758 23.33 112.337 23.33" fill="var(--fill-0, #162455)"/>
<path d="M43.2594 10.6046C41.3976 10.6046 40.0988 11.1443 38.8427 12.3771V5.23664H35.0783V18.4712C35.0783 23.4257 38.6602 26.8193 42.6847 26.8193C47.15 26.8193 51.0774 23.3655 51.0774 18.7139C51.0774 14.1205 47.4625 10.6066 43.2594 10.6066V10.6046ZM43.2361 23.0316C42.3913 23.0316 41.5656 22.7811 40.8632 22.3118C40.1608 21.8425 39.6134 21.1754 39.2901 20.395C38.9668 19.6145 38.8822 18.7558 39.0471 17.9272C39.2119 17.0987 39.6186 16.3377 40.216 15.7404C40.8133 15.143 41.5743 14.7363 42.4028 14.5715C43.2313 14.4067 44.0901 14.4912 44.8706 14.8145C45.651 15.1378 46.3181 15.6852 46.7874 16.3876C47.2567 17.09 47.5072 17.9158 47.5072 18.7605C47.5072 19.8933 47.0572 20.9796 46.2562 21.7806C45.4552 22.5816 44.3688 23.0316 43.2361 23.0316Z" fill="var(--fill-0, #162455)"/>
<path d="M84.1336 18.515C84.1336 13.8556 80.2139 10.4096 75.7409 10.4096C71.7164 10.4096 68.1345 13.8032 68.1345 18.7577V32.0001H71.8989V24.8498C73.153 26.0807 74.4538 26.6224 76.3136 26.6224C80.5168 26.6224 84.1317 23.1103 84.1317 18.515H84.1336ZM80.5692 18.4684C80.5692 19.3132 80.3187 20.139 79.8494 20.8413C79.3801 21.5437 78.713 22.0911 77.9326 22.4144C77.1521 22.7377 76.2933 22.8223 75.4648 22.6575C74.6363 22.4927 73.8753 22.0859 73.278 21.4886C72.6806 20.8912 72.2739 20.1302 72.1091 19.3017C71.9443 18.4732 72.0288 17.6144 72.3521 16.834C72.6754 16.0535 73.2228 15.3865 73.9252 14.9171C74.6276 14.4478 75.4533 14.1973 76.2981 14.1973C77.4309 14.1973 78.5172 14.6473 79.3182 15.4483C80.1192 16.2493 80.5692 17.3357 80.5692 18.4684Z" fill="var(--fill-0, #162455)"/>
<path d="M96.2568 10.3496V6.60661C96.7514 6.37558 97.1703 6.00876 97.4645 5.54887C97.7587 5.08898 97.9162 4.55495 97.9186 4.00901V3.92164C97.9166 3.15869 97.6126 2.42757 97.0731 1.88807C96.5336 1.34858 95.8025 1.04459 95.0395 1.04254H94.9522C94.1892 1.04459 93.4581 1.34858 92.9186 1.88807C92.3791 2.42757 92.0751 3.15869 92.0731 3.92164V4.00901C92.0755 4.55495 92.233 5.08898 92.5272 5.54887C92.8214 6.00876 93.2402 6.37558 93.7349 6.60661V10.3496C92.3127 10.5671 90.9733 11.1565 89.8521 12.0581L79.5743 4.06143C79.6474 3.79763 79.6866 3.52557 79.6908 3.25186C79.6915 2.60947 79.5018 1.98128 79.1455 1.44673C78.7893 0.912174 78.2825 0.495267 77.6893 0.248727C77.0961 0.00218588 76.4431 -0.0629153 75.8129 0.0616553C75.1827 0.186226 74.6036 0.494874 74.1489 0.948568C73.6941 1.40226 73.3841 1.98063 73.258 2.61052C73.1319 3.24042 73.1954 3.89355 73.4406 4.48734C73.6857 5.08112 74.1014 5.58888 74.6351 5.94641C75.1688 6.30394 75.7965 6.49518 76.4389 6.49595C77.0032 6.49385 77.5569 6.34319 78.0444 6.05914L88.1495 13.9257C87.2393 15.2989 86.7645 16.9146 86.787 18.5619C86.8095 20.2091 87.3283 21.8113 88.2757 23.1591L85.2005 26.2343C84.9536 26.1557 84.6965 26.1138 84.4375 26.11C83.9095 26.11 83.3934 26.2666 82.9544 26.5599C82.5155 26.8532 82.1733 27.2701 81.9713 27.7579C81.7692 28.2457 81.7164 28.7824 81.8194 29.3002C81.9224 29.818 82.1766 30.2937 82.5499 30.667C82.9232 31.0403 83.3989 31.2946 83.9167 31.3976C84.4345 31.5006 84.9713 31.4477 85.459 31.2457C85.9468 31.0436 86.3637 30.7015 86.6571 30.2625C86.9504 29.8235 87.1069 29.3074 87.1069 28.7794C87.1034 28.5204 87.0615 28.2633 86.9827 28.0165L90.0249 24.9743C91.0179 25.7328 92.1712 26.2544 93.3966 26.4993C94.622 26.7441 95.8871 26.7058 97.0954 26.3871C98.3037 26.0685 99.4232 25.478 100.369 24.6607C101.314 23.8434 102.06 22.8209 102.55 21.6713C103.04 20.5217 103.26 19.2754 103.195 18.0275C103.13 16.7796 102.78 15.5631 102.173 14.4709C101.566 13.3786 100.717 12.4395 99.6921 11.7253C98.6667 11.0111 97.4917 10.5405 96.2568 10.3496ZM94.9968 22.6621C94.1644 22.6621 93.3506 22.4152 92.6584 21.9527C91.9663 21.4902 91.4268 20.8329 91.1082 20.0638C90.7897 19.2947 90.7063 18.4484 90.8687 17.632C91.0311 16.8155 91.432 16.0655 92.0206 15.4769C92.6093 14.8883 93.3592 14.4874 94.1757 14.325C94.9922 14.1626 95.8384 14.2459 96.6075 14.5645C97.3766 14.8831 98.034 15.4225 98.4965 16.1147C98.9589 16.8069 99.2058 17.6206 99.2058 18.4531C99.2058 19.5694 98.7624 20.6399 97.973 21.4293C97.1837 22.2186 96.1131 22.6621 94.9968 22.6621Z" fill="var(--fill-0, #162455)"/>
</g>
</svg>
