<svg preserveAspectRatio="none" width="100%" height="100%" overflow="visible" style="display: block;" viewBox="0 0 128.375 43.9984" fill="none" xmlns="http://www.w3.org/2000/svg">
<g id="Vector">
<path d="M44.172 23.0545C44.1762 21.2621 43.6261 19.5123 42.597 18.0447C41.5679 16.5771 40.1102 15.4637 38.4236 14.8569C38.5771 14.0746 38.6545 13.2792 38.6547 12.482C38.6562 9.84323 37.8209 7.27193 36.2689 5.1378C34.7169 3.00368 32.5281 1.41666 30.0173 0.604915C27.5064 -0.206827 24.8029 -0.201478 22.2953 0.620194C19.7877 1.44187 17.6052 3.03753 16.0616 5.17779C14.9229 4.29533 13.5275 3.80803 12.087 3.78972C10.6464 3.7714 9.23914 4.22306 8.0783 5.07627C6.91746 5.92949 6.06631 7.13778 5.65377 8.51812C5.24123 9.89846 5.28978 11.3756 5.79207 12.7259C4.10152 13.3421 2.64022 14.4612 1.60473 15.9328C0.56924 17.4043 0.00923079 19.1577 2.95997e-05 20.957C-0.00466136 22.7556 0.548321 24.5114 1.58284 25.9827C2.61736 27.4541 4.08255 28.5685 5.77666 29.1726C5.6267 29.9545 5.5502 30.7488 5.54817 31.5449C5.54565 34.1806 6.38025 36.7491 7.93163 38.8799C9.48301 41.0107 11.671 42.5937 14.1802 43.4008C16.6893 44.2079 19.3899 44.1972 21.8926 43.3704C24.3953 42.5436 26.5707 40.9433 28.1053 38.8004C29.2407 39.685 30.6337 40.1753 32.0729 40.1968C33.5121 40.2182 34.9191 39.7698 36.0805 38.9194C37.2418 38.069 38.0941 36.8631 38.5082 35.4845C38.9222 34.106 38.8754 32.63 38.3749 31.2805C40.0663 30.6653 41.5286 29.5465 42.5646 28.0748C43.6007 26.6031 44.1608 24.8492 44.1695 23.0494" fill="white"/>
<path d="M17.366 18.952L27.0323 23.3654L36.7884 14.8211C36.9289 14.1161 36.9986 13.3988 36.9963 12.6799C36.9958 10.3525 36.2505 8.08643 34.8693 6.21318C33.4882 4.33994 31.5438 2.95788 29.3207 2.26925C27.0976 1.58062 24.7124 1.62156 22.5142 2.38608C20.316 3.15061 18.4202 4.59858 17.1042 6.51812L15.479 14.9238L17.366 18.952Z" fill="#FEC514"/>
<path d="M7.36056 29.1883C7.21803 29.9044 7.14665 30.6328 7.14747 31.3629C7.14752 33.6999 7.89668 35.9754 9.28502 37.8554C10.6734 39.7353 12.6278 41.1208 14.8614 41.8083C17.095 42.4959 19.4902 42.4494 21.6954 41.6756C23.9006 40.9019 25.7998 39.4416 27.1141 37.5092L28.7238 29.1215L26.5749 25.0137L16.8728 20.5927L7.36056 29.1883Z" fill="#00BFB3"/>
<path d="M7.3017 12.4617L13.9256 14.0252L15.3762 6.49247C14.4752 5.80931 13.3772 5.43637 12.2466 5.42948C11.1159 5.4226 10.0135 5.78215 9.10428 6.45429C8.19509 7.12642 7.52808 8.07499 7.20312 9.15795C6.87817 10.2409 6.91275 11.4 7.3017 12.4617Z" fill="#F04E98"/>
<path d="M6.72678 14.0381C5.27343 14.5285 4.00905 15.4597 3.10948 16.702C2.20991 17.9444 1.71987 19.4362 1.70752 20.9701C1.70648 22.4524 2.15664 23.9 2.99818 25.1203C3.83971 26.3407 5.03275 27.276 6.41869 27.8019L15.7127 19.4014L14.0053 15.7557L6.72678 14.0381Z" fill="#1BA9F5"/>
<path d="M28.8139 37.5092C29.7134 38.1889 30.8086 38.5594 31.936 38.5654C33.0634 38.5714 34.1625 38.2125 35.0691 37.5424C35.9758 36.8723 36.6414 35.9269 36.9665 34.8474C37.2916 33.7679 37.2588 32.6121 36.8729 31.5528L30.2542 30.0124L28.8139 37.5092Z" fill="#93C90E"/>
<path d="M30.1593 28.2691L37.4456 29.9713C38.8998 29.4822 40.165 28.5514 41.0648 27.3087C41.9646 26.066 42.454 24.5735 42.4648 23.0393C42.4635 21.5601 42.0125 20.1162 41.1715 18.8992C40.3305 17.6823 39.1394 16.7498 37.7562 16.2255L28.2261 24.5695L30.1593 28.2691Z" fill="#0077CC"/>
<path d="M61.7613 30.9135L62.6444 30.8237L62.7061 32.6208C60.7408 32.9176 58.7576 33.0806 56.7702 33.1086C54.5794 33.1086 53.027 32.4745 52.113 31.2062C51.199 29.9379 50.7429 27.9644 50.7446 25.2858C50.7446 19.9507 52.8652 17.2824 57.1066 17.2807C59.1605 17.2807 60.6924 17.854 61.7022 19.0008C62.712 20.1476 63.2187 21.9448 63.2221 24.3923L63.1014 26.1279H53.0578C53.0578 27.8121 53.3625 29.0599 53.9718 29.8712C54.5811 30.6824 55.6406 31.0881 57.1502 31.0881C58.6633 31.0932 60.2003 31.035 61.7613 30.9135ZM60.9397 24.3102C60.9397 22.4428 60.641 21.124 60.0437 20.3538C59.4463 19.5836 58.4724 19.1976 57.122 19.1959C55.7715 19.1959 54.7566 19.6016 54.0771 20.4129C53.3975 21.2242 53.0475 22.5233 53.027 24.3102H60.9397Z" fill="var(--fill-0, #162455)"/>
<path d="M66.4057 32.988V12.9623H68.6881V32.988H66.4057Z" fill="var(--fill-0, #162455)"/>
<path d="M83.063 22.1792V29.8557C83.063 30.626 84.9578 30.5849 84.9578 30.5849L84.8422 32.6029C83.2376 32.6029 81.9103 32.7364 81.1144 31.9636C79.3908 32.729 77.524 33.1185 75.6381 33.1061C74.2398 33.1061 73.1743 32.7098 72.4417 31.9174C71.7092 31.1249 71.3438 29.9858 71.3455 28.5002C71.3455 27.0179 71.7212 25.9268 72.4725 25.2267C73.2239 24.5267 74.4007 24.0988 76.0027 23.943L80.7806 23.4886V22.1792C80.7806 21.1523 80.5581 20.4112 80.1131 19.9559C79.8692 19.727 79.5816 19.5498 79.2674 19.4351C78.9532 19.3204 78.6191 19.2705 78.2851 19.2883H72.2877V17.2781H78.1336C79.8589 17.2781 81.1118 17.6743 81.8923 18.4668C82.6728 19.2592 83.063 20.4967 83.063 22.1792ZM73.6844 28.3872C73.6844 30.2546 74.4546 31.1882 75.995 31.1882C77.3847 31.1866 78.7641 30.9496 80.0746 30.4873L80.7729 30.2434V25.2216L76.2774 25.6478C75.3634 25.7299 74.7036 25.9935 74.298 26.4385C73.8923 26.8836 73.6878 27.5331 73.6844 28.3872Z" fill="var(--fill-0, #162455)"/>
<path d="M91.9742 19.3192C89.7611 19.3192 88.6546 20.0894 88.6546 21.6298C88.6546 22.3418 88.9113 22.8442 89.4248 23.1369C89.9383 23.4296 91.0945 23.7342 92.8934 24.0509C94.7008 24.3675 95.9794 24.8091 96.729 25.3756C97.4787 25.9422 97.8544 27.0068 97.8561 28.5695C97.8561 30.1339 97.3538 31.2806 96.3491 32.0098C95.3444 32.7389 93.8784 33.1044 91.9511 33.1061C90.6931 33.1061 86.4928 32.6388 86.4928 32.6388L86.6161 30.6619C89.0294 30.893 90.7727 31.065 91.9511 31.065C93.1296 31.065 94.0256 30.8776 94.6443 30.5027C95.2631 30.1279 95.5712 29.4989 95.5712 28.6157C95.5712 27.7325 95.3144 27.1343 94.7804 26.8185C94.2464 26.5027 93.0962 26.2049 91.3118 25.9199C89.5275 25.6349 88.2566 25.219 87.507 24.6722C86.7573 24.1253 86.3799 23.1086 86.3799 21.6272C86.3799 20.1459 86.8934 19.0599 87.9486 18.341C89.0038 17.6221 90.2977 17.2755 91.8587 17.2755C93.0962 17.2755 97.3914 17.5913 97.3914 17.5913V19.581C95.1244 19.4809 93.2708 19.3192 91.9742 19.3192Z" fill="var(--fill-0, #162455)"/>
<path d="M108.858 19.5605H104.018V26.8365C104.018 28.5806 104.145 29.7265 104.398 30.2742C104.655 30.8237 105.255 31.0958 106.208 31.0958L108.917 30.9135L109.071 32.8005C108.045 32.9901 107.007 33.1026 105.964 33.1369C104.383 33.1369 103.287 32.7509 102.678 31.979C102.068 31.2071 101.765 29.7359 101.766 27.5656V19.5605H99.6149V17.5836H101.777V12.9264H104.028V17.5836H108.858V19.5605Z" fill="var(--fill-0, #162455)"/>
<path d="M112.031 15.6401V12.9905H114.313V15.6401H112.031ZM112.031 32.988V17.5836H114.313V32.988H112.031Z" fill="var(--fill-0, #162455)"/>
<path d="M124.2 17.2781C125.34 17.3267 126.476 17.4494 127.6 17.6452L128.329 17.7351L128.239 19.5913C127.046 19.4402 125.846 19.3494 124.644 19.3192C122.919 19.3192 121.748 19.7299 121.13 20.5515C120.512 21.3731 120.202 22.8947 120.2 25.1163C120.2 27.3414 120.49 28.8887 121.068 29.7582C121.647 30.6277 122.853 31.0641 124.688 31.0676L128.282 30.7954L128.375 32.6824C126.976 32.9195 125.562 33.0619 124.144 33.1086C121.772 33.1086 120.134 32.4993 119.23 31.2807C118.326 30.062 117.874 28.0081 117.874 25.1189C117.874 22.228 118.361 20.1989 119.335 19.0316C120.309 17.8643 121.931 17.2798 124.2 17.2781Z" fill="var(--fill-0, #162455)"/>
</g>
</svg>
