<svg preserveAspectRatio="none" width="100%" height="100%" overflow="visible" style="display: block;" viewBox="0 0 177.301 22" fill="none" xmlns="http://www.w3.org/2000/svg">
<g id="Vector">
<path d="M6.4493 10.0349C6.3847 9.95037 6.29939 9.88394 6.20161 9.84202C6.10384 9.8001 5.9969 9.78411 5.89114 9.7956C5.78538 9.80709 5.68437 9.84567 5.59787 9.90761C5.51138 9.96955 5.44233 10.0528 5.39739 10.1492L0.0672455 20.8062C0.0186886 20.9033 -0.00423741 21.0112 0.000644203 21.1197C0.00552582 21.2282 0.038053 21.3336 0.0951376 21.426C0.152222 21.5183 0.231969 21.5946 0.326807 21.6475C0.421645 21.7003 0.528426 21.7281 0.637012 21.7281H8.05897C8.17784 21.7309 8.29496 21.6991 8.3961 21.6365C8.49724 21.574 8.57806 21.4835 8.62874 21.3759C10.2297 18.0676 9.25948 13.0373 6.4493 10.0349Z" fill="url(#paint0_linear_0_19)"/>
<path d="M10.3584 0.341877C9.03031 2.38543 8.25633 4.73918 8.11246 7.17215C7.96858 9.60511 8.45975 12.0337 9.53777 14.2195L13.116 21.3759C13.1689 21.4817 13.2502 21.5707 13.3508 21.6329C13.4515 21.6952 13.5674 21.7281 13.6857 21.7281H21.1064C21.2149 21.7281 21.3217 21.7003 21.4166 21.6475C21.5114 21.5946 21.5912 21.5183 21.6482 21.426C21.7053 21.3336 21.7378 21.2282 21.7427 21.1197C21.7476 21.0112 21.7247 20.9033 21.6761 20.8062C21.6761 20.8062 11.6929 0.837341 11.442 0.337879C11.3924 0.236212 11.3151 0.150587 11.2191 0.0908256C11.123 0.0310641 11.0121 -0.000413326 10.899 4.09831e-06C10.7858 0.000421523 10.6751 0.0327169 10.5795 0.0931856C10.4839 0.153654 10.4073 0.239847 10.3584 0.341877Z" fill="#2684FF"/>
<path d="M97.3989 8.88668C97.3989 11.5256 98.6231 13.6207 103.411 14.5457C106.268 15.1455 106.867 15.6066 106.867 16.5589C106.867 17.4838 106.267 18.0826 104.255 18.0826C101.823 18.0389 99.4395 17.3939 97.3173 16.2053V20.5036C98.7594 21.211 100.664 22 104.2 22C109.206 22 111.193 19.7676 111.193 16.4499L97.3989 8.88668ZM111.193 16.4499C111.193 13.3212 109.533 11.8518 104.854 10.8455C102.269 10.2741 101.643 9.70301 101.643 8.88668C101.643 7.85377 102.568 7.41762 104.282 7.41762C106.35 7.41762 108.39 8.04336 110.322 8.914V4.80569C108.47 3.96269 106.453 3.54443 104.418 3.58152C99.793 3.58152 97.3989 5.5947 97.3989 8.88668" fill="var(--fill-0, #162455)"/>
<path d="M161.711 3.85352V21.7282H165.52V8.09778L167.126 11.716L172.512 21.7282H177.301V3.85352H173.492V15.3891L172.05 12.0425L167.724 3.85352H161.711Z" fill="var(--fill-0, #162455)"/>
<path d="M137.486 3.85352H133.324V21.7282H137.486V3.85352Z" fill="var(--fill-0, #162455)"/>
<path d="M128.521 16.4498C128.521 13.321 126.861 11.8516 122.182 10.8454C119.597 10.274 118.971 9.70286 118.971 8.88653C118.971 7.85362 119.896 7.41746 121.61 7.41746C123.678 7.41746 125.719 8.04321 127.65 8.91385V4.80553C125.798 3.96253 123.781 3.54428 121.746 3.58137C117.121 3.58137 114.727 5.59455 114.727 8.88653C114.727 11.5254 115.951 13.6206 120.74 14.5455C123.596 15.1453 124.195 15.6064 124.195 16.5587C124.195 17.4837 123.595 18.0824 121.583 18.0824C119.151 18.0387 116.768 17.3938 114.646 16.2052V20.5034C116.088 21.2108 117.992 21.9998 121.529 21.9998C126.535 21.9998 128.521 19.7674 128.521 16.4498Z" fill="var(--fill-0, #162455)"/>
<path d="M65.0615 3.85352V21.7282H73.6173L74.9645 17.8648H69.2511V3.85352H65.0615Z" fill="var(--fill-0, #162455)"/>
<path d="M48.1587 3.85352V7.7166H52.7838V21.7282H56.9734V7.7166H61.9251V3.85352H48.1587Z" fill="var(--fill-0, #162455)"/>
<path d="M42.0832 3.85352H36.5925L30.3594 21.7282H35.1194L36.0031 18.7178C38.1793 19.3568 40.4934 19.3568 42.6697 18.7178L43.5533 21.7282H48.3144L42.0832 3.85352ZM39.3377 15.4944C38.5623 15.4944 37.7909 15.3834 37.047 15.1649L39.3377 7.36441L41.6284 15.1675C40.8843 15.3852 40.113 15.4952 39.3377 15.4944Z" fill="var(--fill-0, #162455)"/>
<path d="M88.3681 3.85352H82.8776L76.6445 21.7282H81.4056L82.2892 18.7178C84.4655 19.3568 86.7796 19.3568 88.9558 18.7178L89.8395 21.7282H94.6005L88.3681 3.85352ZM85.6228 15.4944C84.8475 15.4944 84.0761 15.3834 83.3321 15.1649L85.6228 7.36441L87.9136 15.1675C87.1695 15.3852 86.3981 15.4952 85.6228 15.4944Z" fill="var(--fill-0, #162455)"/>
<path d="M152.486 3.85352H146.996L140.763 21.7282H145.524L146.407 18.7178C148.584 19.3568 150.898 19.3568 153.074 18.7178L153.958 21.7282H158.719L152.486 3.85352ZM149.739 15.4944C148.964 15.4944 148.193 15.3834 147.449 15.1649L149.739 7.36441L152.03 15.1675C151.286 15.3852 150.515 15.4952 149.739 15.4944Z" fill="var(--fill-0, #162455)"/>
</g>
<defs>
<linearGradient id="paint0_linear_0_19" x1="176.742" y1="3.47902" x2="175.395" y2="27.3462" gradientUnits="userSpaceOnUse">
<stop stop-color="#0052CC"/>
<stop offset="0.923" stop-color="#2684FF"/>
</linearGradient>
</defs>
</svg>
