<svg preserveAspectRatio="none" width="100%" height="100%" overflow="visible" style="display: block;" viewBox="0 0 128.266 22" fill="none" xmlns="http://www.w3.org/2000/svg">
<g id="Vector">
<path d="M110.124 11.3823H115.772L112.922 5.06926L110.124 11.3823ZM100.801 21.2775V18.531L102.77 18.2152C103.451 18.0933 103.739 17.2137 103.823 17.0126L108.729 5.75198C109.128 4.86671 108.738 4.08909 108.225 4.00835L105.647 3.58059V0.805803H116.829C117.457 0.805803 117.855 1.40779 118.111 1.93045L124.642 16.0084C125.157 17.1316 125.555 18.0183 126.211 18.1401L128.266 18.4644V21.2775H115.688V18.5027L117.285 18.2208C118.056 18.1018 118.684 17.6174 118.056 16.2902L117.457 15.0013H108.527L107.843 16.5721C107.417 17.5353 107.843 18.1018 108.5 18.2208L110.097 18.5027V21.2775H100.801Z" fill="var(--fill-0, #162455)"/>
<path d="M90.2486 17.3328H86.541V4.70535H90.2486C93.7844 4.70535 95.269 5.87391 95.269 11.0198C95.269 16.2096 93.7844 17.3328 90.2486 17.3328ZM92.4715 0.805916H78.0903L78.0873 3.5807L79.8893 3.84274C80.5643 3.98155 80.8366 4.66569 80.8366 5.58779V16.6104C80.8366 17.3739 80.6075 18.102 80.0099 18.2209L78.0792 18.575V21.2691L92.4715 21.2776C99.089 21.2776 101.942 16.7323 101.942 10.7408C101.942 5.35124 99.089 0.805916 92.4715 0.805916Z" fill="var(--fill-0, #162455)"/>
<path d="M0 21.2779H11.6349V18.5413L9.64104 18.2212C9.18299 18.1405 8.72696 17.7396 8.72696 16.3671V13.0725H17.6829V16.2099C17.6829 17.1306 17.5684 18.0187 16.799 18.1405L14.7729 18.4649V21.2779H26.4099V18.4649L24.3557 18.1405C23.958 18.0626 23.5009 17.6178 23.5009 16.4507V5.79205C23.5009 4.70565 23.7852 3.98185 24.3839 3.90253L26.4099 3.581V0.806213H14.7729V3.54134L16.799 3.90253C17.483 4.02293 17.6829 4.7878 17.6829 5.79205V8.9691H8.72696V5.75239C8.72696 4.54559 9.06949 3.98185 9.66816 3.90253L11.6349 3.581V0.806213H0.0271211V3.581L1.96778 3.90253C2.73923 4.02293 2.93711 4.82746 2.90899 5.8742V16.2481C2.90899 17.4153 2.68097 18.1022 1.93966 18.2212L0 18.5413V21.2779Z" fill="var(--fill-0, #162455)"/>
<path d="M38.8453 3.94051C35.5386 3.94051 33.6552 5.67139 33.6552 10.9788C33.6552 16.3669 35.5386 18.102 38.8453 18.102C42.1541 18.102 44.0375 16.3669 44.0375 10.9788C44.0375 5.67139 42.1541 3.94051 38.8453 3.94051ZM26.9824 10.9391C26.9824 4.50567 30.6618 0 38.8745 0C47.0329 0 50.7123 4.50567 50.7123 10.9391C50.7123 17.5354 47.0329 22 38.8745 22C30.6618 22 26.9824 17.5354 26.9824 10.9391Z" fill="var(--fill-0, #162455)"/>
<path d="M51.3602 21.2779H60.6587V18.5413L58.6608 18.2212C58.0892 18.1405 57.7477 17.4634 57.7477 16.53V6.11358L65.4792 20.4734C65.7333 20.9564 66.2185 21.2779 66.6746 21.2779H73.9762V5.75239C73.9762 5.02434 74.1138 4.02718 74.8611 3.90253L76.8841 3.581V0.806213H67.5876V3.54134L69.6137 3.90253C70.3289 4.02434 70.4966 4.86712 70.4966 5.83171V15.9691L62.8244 1.69007C62.5401 1.1674 62.1694 0.806213 61.627 0.806213H51.3602V3.581L53.2988 3.90253C53.9819 4.04559 54.24 4.53568 54.24 5.8742V16.2481C54.24 17.479 54.002 18.0711 53.2697 18.2212L51.3602 18.5413V21.2779Z" fill="var(--fill-0, #162455)"/>
</g>
</svg>
